<?xml version="1.0" encoding="UTF-8" standalone="no"?>
<!-- Created with Inkscape (http://www.inkscape.org/) -->

<svg
   xmlns:dc="http://purl.org/dc/elements/1.1/"
   xmlns:cc="http://creativecommons.org/ns#"
   xmlns:rdf="http://www.w3.org/1999/02/22-rdf-syntax-ns#"
   xmlns:svg="http://www.w3.org/2000/svg"
   xmlns="http://www.w3.org/2000/svg"
   xmlns:sodipodi="http://sodipodi.sourceforge.net/DTD/sodipodi-0.dtd"
   xmlns:inkscape="http://www.inkscape.org/namespaces/inkscape"
   width="40"
   height="40"
   id="svg4279"
   version="1.1"
   inkscape:version="0.48.3.1 r9886"
   sodipodi:docname="New document 5">
  <defs
     id="defs4281" />
  <sodipodi:namedview
     id="base"
     pagecolor="#ffffff"
     bordercolor="#666666"
     borderopacity="1.0"
     inkscape:pageopacity="0.0"
     inkscape:pageshadow="2"
     inkscape:zoom="5.6568542"
     inkscape:cx="22.769192"
     inkscape:cy="19.123295"
     inkscape:document-units="px"
     inkscape:current-layer="layer1"
     showgrid="false"
     inkscape:window-width="1364"
     inkscape:window-height="766"
     inkscape:window-x="0"
     inkscape:window-y="0"
     inkscape:window-maximized="0" />
  <metadata
     id="metadata4284">
    <rdf:RDF>
      <cc:Work
         rdf:about="">
        <dc:format>image/svg+xml</dc:format>
        <dc:type
           rdf:resource="http://purl.org/dc/dcmitype/StillImage" />
        <dc:title></dc:title>
      </cc:Work>
    </rdf:RDF>
  </metadata>
  <g
     inkscape:label="Layer 1"
     inkscape:groupmode="layer"
     id="layer1"
     transform="translate(0,-1012.3622)">
    <g
       id="g16952"
       transform="matrix(0.63204495,0,0,0.63204495,-368.09774,815.12106)">
      <g
         inkscape:export-ydpi="100"
         inkscape:export-xdpi="100"
         inkscape:export-filename="/home/substack/a_browser_in_your_browser.png"
         transform="matrix(0.9998467,-0.0175113,0.0175113,0.9998467,521.23006,-247.52708)"
         id="g16954">
        <path
           sodipodi:nodetypes="cssssssssssssssssssssscssssssssssssssssssssscsssssssssssc"
           id="path16956"
           d="m 95.994899,616.00026 c -0.56269,-1.12537 -1.47094,-1.96125 -2.27284,-3.03046 -0.85998,-1.14663 -1.52973,-2.28371 -2.52539,-3.03046 -0.91028,-0.68271 -2.11998,-2.1532 -2.77792,-3.03045 -0.78973,-1.05298 -1.6981,-1.69811 -2.52538,-2.52538 -0.72512,-0.72512 -1.44662,-1.50793 -2.0203,-2.27285 -0.86012,-1.14682 2.90242,-0.60022 4.29315,-0.25254 1.62345,0.40587 3.89181,0 5.55584,0 1.5994,0 3.19881,0 4.79822,0 1.43774,0 3.920891,1.43659 4.293151,0 0.2748,-1.0605 -2.09135,-2.09134 -2.77792,-2.77792 -1.196511,-1.1965 -2.527481,-2.0224 -3.535541,-3.03045 -1.17186,-1.17186 -2.25776,-2.00523 -3.28299,-3.03046 -1.01583,-1.01582 -1.79209,-2.04463 -2.52538,-2.77792 -1.13811,-1.1381 -2.15777,-1.90523 -3.03046,-2.77792 -1.02294,-1.02294 -2.07998,-2.07998 -3.03046,-3.03046 -1.03779,-1.03779 -2.10756,-2.30501 -3.03046,-3.53553 -0.81713,-1.08951 -1.92851,-1.9821 -2.52538,-2.77792 -0.91514,-1.2202 -1.61229,-1.61229 -2.77792,-2.77792 -0.98154,-0.98154 -1.14905,-1.4016 -2.0203,-2.27284 -0.79725,-0.79726 -1.40081,-1.40081 -2.02031,-2.02031 -0.81235,-0.81235 -1.09092,-1.23633 -2.0203,-1.76777 -0.62139,-0.35533 -1.42578,-0.43009 -2.19888,-0.40047 0.18194,1.64139 0.43111,3.45552 0.43111,4.18855 0,1.26269 0,2.52538 0,3.78807 0,1.38913 -0.01193,2.71824 0.25254,4.04061 0.24824,1.24119 0,2.76984 0,4.04061 0,1.13316 0.25254,2.50558 0.25254,3.78807 0,1.26269 0,2.52538 0,3.78807 0,1.29238 -0.25254,2.26093 -0.25254,3.53554 0,1.52274 -0.25254,2.73874 -0.25254,4.29315 0,1.38905 -0.50507,2.81705 -0.50507,4.29314 0,1.25447 -0.25254,2.4361 -0.25254,3.78808 0,1.17851 0,2.35702 0,3.53553 0,1.13316 0.25254,2.50558 0.25254,3.78807 0,1.29238 -0.648244,3.21757 0.25253,3.53554 1.016546,0.35883 1.25803,-1.76311 2.02031,-2.52539 1.14066,-1.14066 1.39454,-2.40469 2.52538,-3.53553 0.93442,-0.93442 1.79213,-1.80025 2.52538,-2.77792 0.72489,-0.96652 0.70815,-0.83441 1.26269,-1.38896 0.77022,-0.77021 1.78237,-1.39626 2.52539,-1.76777 0.89735,-0.44868 1.16471,0.0566 1.76776,1.26269 0.45205,0.90409 0.90835,2.06924 1.26269,2.77792 0.5849,1.16979 1.16798,2.43067 2.02031,3.283 0.78593,0.78593 1.06081,2.728 1.26269,3.53553 0.04209,0.16836 0.08418,0.33672 0.12627,0.50508 0.13774,0.55098 0.42789,1.23459 0.63134,1.6415 0.24882,0.49763 0.51319,1.02637 0.75762,1.51522 0.27525,0.5505 0.37569,1.00704 0.88388,1.51523 0.40618,0.40618 0.91018,0.64449 1.38896,0.88389 0.41953,0.20976 1.34895,0 1.89403,-0.3788 0.58999,-0.41002 1.51593,-0.59996 2.14658,-0.75762 0.74817,-0.18705 1.13832,-0.66434 1.76777,-1.13642 0.52788,-0.39591 0.66985,-0.83465 1.01015,-1.51523 0.26637,-0.53274 0.23268,-1.18328 0.37881,-1.76777 0.16424,-0.65698 0,-1.03586 0,-1.6415 0,-0.35961 -0.24525,-0.67626 -0.37881,-1.01015 z"
           style="fill:#000000;fill-opacity:0.41850221;fill-rule:evenodd;stroke:none;stroke-width:2;marker:none;visibility:visible;display:inline;overflow:visible;enable-background:accumulate"
           inkscape:connector-curvature="0" />
        <g
           transform="translate(-483.69976,251.87253)"
           id="g16958">
          <path
             style="fill:#ffffff;fill-opacity:1;fill-rule:evenodd;stroke:#000000;stroke-width:2;stroke-linecap:round;stroke-linejoin:round;stroke-miterlimit:4;stroke-opacity:1;stroke-dasharray:none;stroke-dashoffset:0;marker:none;visibility:visible;display:inline;overflow:visible;enable-background:accumulate"
             d="m 578.47514,358.50325 c -0.56269,-1.12537 -1.47094,-1.96125 -2.27284,-3.03046 -0.85998,-1.14663 -1.52973,-2.28371 -2.52539,-3.03046 -0.91028,-0.68271 -2.11998,-2.1532 -2.77792,-3.03045 -0.78973,-1.05298 -1.6981,-1.69811 -2.52538,-2.52538 -0.72512,-0.72512 -1.44662,-1.50793 -2.0203,-2.27285 -0.86012,-1.14682 2.90242,-0.60022 4.29315,-0.25254 1.62345,0.40587 3.89181,0 5.55584,0 1.5994,0 3.19881,0 4.79822,0 1.43774,0 2.80911,0 4.29315,0 0.25623,0 -2.09135,-2.09134 -2.77792,-2.77792 -1.19651,-1.1965 -2.52748,-2.0224 -3.53554,-3.03045 -1.17186,-1.17186 -2.25776,-2.00523 -3.28299,-3.03046 -1.01583,-1.01582 -1.79209,-2.04463 -2.52538,-2.77792 -1.13811,-1.1381 -2.15777,-1.90523 -3.03046,-2.77792 -1.02294,-1.02294 -2.07998,-2.07998 -3.03046,-3.03046 -1.03779,-1.03779 -2.10756,-2.30501 -3.03046,-3.53553 -0.81713,-1.08951 -1.92851,-1.9821 -2.52538,-2.77792 -0.91514,-1.2202 -1.61229,-1.61229 -2.77792,-2.77792 -0.98154,-0.98154 -1.14905,-1.4016 -2.0203,-2.27284 -0.79725,-0.79726 -1.40081,-1.40081 -2.02031,-2.02031 -0.81235,-0.81235 -1.09092,-1.23633 -2.0203,-1.76777 -0.62139,-0.35533 -1.42578,-0.43009 -2.19888,-0.40047 0.18194,1.64139 0.43111,3.45552 0.43111,4.18855 0,1.26269 0,2.52538 0,3.78807 0,1.38913 -0.0119,2.71824 0.25254,4.04061 0.24824,1.24119 0,2.76984 0,4.04061 0,1.13316 0.25254,2.50558 0.25254,3.78807 0,1.26269 0,2.52538 0,3.78807 0,1.29238 -0.25254,2.26093 -0.25254,3.53554 0,1.52274 -0.25254,2.73874 -0.25254,4.29315 0,1.38905 -0.50507,2.81705 -0.50507,4.29314 0,1.25447 -0.25254,2.4361 -0.25254,3.78808 0,1.17851 0,2.35702 0,3.53553 0,1.13316 0.25254,2.50558 0.25254,3.78807 0,1.29238 0.25253,2.26093 0.25253,3.53554 0,1.07802 1.25803,-1.76311 2.02031,-2.52539 1.14066,-1.14066 1.39454,-2.40469 2.52538,-3.53553 0.93442,-0.93442 1.79213,-1.80025 2.52538,-2.77792 0.72489,-0.96652 0.70815,-0.83441 1.26269,-1.38896 0.77022,-0.77021 1.78237,-1.39626 2.52539,-1.76777 0.89735,-0.44868 1.16471,0.0566 1.76776,1.26269 0.45205,0.90409 0.90835,2.06924 1.26269,2.77792 0.5849,1.16979 1.16798,2.43067 2.02031,3.283 0.78593,0.78593 1.06081,2.728 1.26269,3.53553 0.0421,0.16836 0.0842,0.33672 0.12627,0.50508 0.13774,0.55098 0.42789,1.23459 0.63134,1.6415 0.24882,0.49763 0.51319,1.02637 0.75762,1.51522 0.27525,0.5505 0.37569,1.00704 0.88388,1.51523 0.40618,0.40618 0.91018,0.64449 1.38896,0.88389 0.41953,0.20976 1.34895,0 1.89403,-0.3788 0.58999,-0.41002 1.51593,-0.59996 2.14658,-0.75762 0.74817,-0.18705 1.13832,-0.66434 1.76777,-1.13642 0.52788,-0.39591 0.66985,-0.83465 1.01015,-1.51523 0.26637,-0.53274 0.23268,-1.18328 0.37881,-1.76777 0.16424,-0.65698 0,-1.03586 0,-1.6415 0,-0.35961 -0.24525,-0.67626 -0.37881,-1.01015 z"
             id="path16960"
             sodipodi:nodetypes="cssssssssssssssssssssscssssssssssssssssssssscsssssssssssc"
             inkscape:connector-curvature="0" />
          <path
             style="fill:#333030;fill-opacity:1;fill-rule:evenodd;stroke:#000000;stroke-width:2;stroke-linecap:butt;stroke-linejoin:round;stroke-miterlimit:4;stroke-opacity:1;stroke-dasharray:none;stroke-dashoffset:0;marker:none;visibility:visible;display:inline;overflow:visible;enable-background:accumulate"
             d="m 559.59792,346.00262 c -0.28153,0.28152 -0.47161,0.60624 -0.75762,0.82075 -0.32269,0.24201 -0.4721,0.4721 -0.75761,0.75761 -0.28717,0.28717 -0.5847,0.56915 -0.82075,0.88388 -0.24016,0.32021 -0.49873,0.5387 -0.75762,0.88389 -0.247,0.32934 -0.51182,0.63809 -0.82075,0.94702 -0.25805,0.25805 -0.52604,0.58918 -0.82074,0.88388 -0.32835,0.32835 -0.5529,0.61603 -0.88389,0.94702 -0.37488,0.37488 -0.59908,0.69354 -0.88388,1.07328 0,-0.0195 0.0631,-0.55959 0.0631,-0.75761 0,-0.33148 0.0631,-0.47799 0.0631,-0.82075 0,-0.33486 0.12627,-0.53505 0.12627,-0.82075 0,-0.33398 0.12627,-0.68673 0.12627,-1.01015 0,-0.43203 0.1894,-0.78672 0.1894,-1.19956 0,-0.30786 0.15145,-0.99199 -0.008,-1.31064 0.0298,-0.11905 0.0595,-0.2381 0.0893,-0.35715 0.14365,-0.57461 0.17857,-1.17685 0.17857,-1.78571 0,-0.51135 0.0893,-0.91487 0.0893,-1.42857 0,-0.47725 -0.0935,-1.05052 0,-1.51786 0.11105,-0.55527 0.17857,-1.31055 0.17857,-1.875 0,-0.60028 -0.0262,-1.2081 0.0893,-1.78571 0.0861,-0.43077 0.28745,-1.52878 0.17857,-1.96429 -0.12437,-0.49745 0,-0.97171 0,-1.51786 0,-0.54477 -0.0893,-0.98952 -0.0893,-1.51785 0,-0.50596 0,-1.01191 0,-1.51786 0,-0.58238 0,-0.8858 0,-1.42857 0,-0.44643 0,-0.89286 0,-1.33929 0,-0.47619 0,-0.95238 0,-1.42857 0,-0.53078 0.0893,-1.1107 0.0893,-1.60714 0,-0.47619 0,-0.95238 0,-1.42857 0,-0.44643 0,-0.89286 0,-1.33929 0,-0.47389 -0.0893,-0.98769 -0.0893,-1.42857 0,-0.426 0.10312,-1.0161 0,-1.42857 -0.12155,-0.48622 -0.0963,-1.06634 -0.0893,-1.60714 0.57497,-0.34499 0.6115,-0.27798 0.98214,0 0.24616,0.18462 0.64233,0.55304 0.89286,0.80357 0.15488,0.15488 0.68022,0.55688 0.80357,0.80357 0.22697,0.45394 0.63287,0.90073 0.98214,1.25 0.29361,0.29361 0.50798,0.50798 0.89286,0.89286 0.25555,0.25555 0.59247,0.49234 0.89285,0.89285 0.3207,0.4276 0.76046,0.65679 1.07143,1.07143 0.31199,0.41598 0.92321,0.86427 1.16072,1.33929 0.24637,0.49275 0.68854,0.86711 1.07143,1.25 0.40019,0.40019 0.83299,0.72376 1.16071,1.16071 0.42573,0.56764 1.01213,1.1907 1.51786,1.69643 0.38977,0.38978 0.83538,0.95648 1.07143,1.42857 0.29321,0.58644 0.87555,1.05413 1.33928,1.51786 0.59707,0.59707 1.24806,1.15877 1.875,1.78571 0.45905,0.45905 0.99808,0.94946 1.51786,1.33929 0,0.42719 0.7259,0.46325 1.02797,0.76532 0.28356,0.28356 0.67043,0.46148 1.01015,0.63134 0.24471,0.12236 0.57507,0.49444 0.75761,0.63135 0.26935,0.20201 0.54461,0.3552 0.69448,0.50508 0.2308,0.23079 0.41412,0.41412 0.56821,0.56821 0.22871,0.22871 0.33396,0.33396 0.50508,0.50507 0.26461,0.26462 0.4631,0.52624 0.63134,0.69448 0.19412,0.19412 0.33401,0.32484 0.56822,0.44194 0.10522,0.0421 0.21044,0.0842 0.31566,0.12627 0.17624,0.0705 0.40856,0.40856 0.50508,0.50508 0.19729,0.19728 0.37157,0.25253 -0.12627,0.25253 -0.31773,0 -0.60657,-0.12627 -0.94702,-0.12627 -0.28258,0 -0.57188,-0.0631 -0.88388,-0.0631 -0.36146,0 -0.60743,-0.0196 -0.82075,-0.12627 -0.21962,-0.10981 -0.62914,-0.0631 -0.88388,-0.0631 -0.28965,0 -0.6336,-0.0631 -0.94702,-0.0631 -0.33733,0 -0.56649,0 -0.88388,0 -0.31568,0 -0.63135,0 -0.94702,0 -0.31568,0 -0.63135,0 -0.94702,0 -0.3666,0 -0.64726,-0.0631 -1.01015,-0.0631 -0.28965,0 -0.6336,-0.0631 -0.94702,-0.0631 -0.29839,0 -0.61712,-0.0631 -0.94702,-0.0631 -0.28329,0 -0.62639,-0.0631 -0.94702,-0.0631 0,0.23407 -0.39356,-0.0242 -0.82074,0.18941 -0.15914,0.0796 -0.4972,0.21703 -0.69448,0.31567 -0.12725,0.0636 -0.69958,0.19449 -0.82075,0.31567 -0.19133,0.19133 -0.55853,0.42258 -0.69448,0.69448 -0.15605,0.3121 -0.29042,0.64397 -0.44194,0.94702 -0.168,0.33598 -0.22185,0.56469 -0.12627,0.94702 0.0692,0.2767 0.129,0.51054 0.25253,0.75761 0.12438,0.24875 0.39924,0.52551 0.56821,0.69448 0.1373,0.1373 0.39694,0.39693 0.56822,0.56821 0.15484,0.15484 0.36945,0.42947 0.56821,0.69448 0.22072,0.29431 0.29962,0.54681 0.50507,0.82075 0.18856,0.25141 0.34047,0.55466 0.50508,0.88388 0.15013,0.30026 0.3114,0.49655 0.44194,0.75762 0.13044,0.26089 0.34096,0.39148 0.56821,0.69448 0.17337,0.23116 0.43138,0.55764 0.69448,0.82075 0.19068,0.19067 0.5301,0.34904 0.69448,0.56821 0.17755,0.23673 0.4164,0.47953 0.69448,0.75761 0.28941,0.28941 0.36522,0.40278 0.63135,0.75762 0.21954,0.29272 0.27651,0.52905 0.50507,0.75761 0.26984,0.26984 0.3898,0.3898 0.63135,0.63135 0.21258,0.21257 0.36413,0.43093 0.63134,0.63134 0.25397,0.19048 0.65708,0.43028 0.82075,0.75762 0.15961,0.31922 0.35603,0.47471 0.56821,0.75761 0.14501,0.19335 0.44826,0.5177 0.56821,0.75762 0.15808,0.31615 0.35271,0.51601 0.50508,0.82074 0.15229,0.30458 0.27422,0.42217 0.44194,0.75762 0.16677,0.33354 0.23653,0.50416 0.31567,0.82075 0.0729,0.29178 0.0631,0.61907 0.0631,0.94702 0,0.25009 -0.008,0.72665 -0.12627,0.88388 -0.15265,0.20354 -0.33978,0.33978 -0.56821,0.56821 -0.14,0.14 -0.37625,0.28282 -0.56821,0.37881 -0.13209,0.066 -0.49998,0.31694 -0.75762,0.25254 -0.27151,-0.0679 -0.44425,-0.1742 -0.75761,-0.25254 -0.3714,-0.0928 -0.53267,-0.18145 -0.69448,-0.50508 -0.10831,-0.21663 -0.23741,-0.44454 -0.31567,-0.75761 -0.0966,-0.38647 -0.28469,-0.74328 -0.44194,-1.13642 -0.1409,-0.35224 -0.32734,-0.65468 -0.50508,-1.01016 -0.15007,-0.30013 -0.30162,-0.57514 -0.37881,-0.88388 -0.0781,-0.31244 -0.17302,-0.66173 -0.31567,-0.94702 -0.16882,-0.33763 -0.33322,-0.66643 -0.50508,-1.01015 -0.14098,-0.28198 -0.34325,-0.56024 -0.50507,-0.88389 -0.15409,-0.30816 -0.25181,-0.56747 -0.50508,-0.82074 -0.204,-0.204 -0.35184,-0.47812 -0.50508,-0.63135 -0.14305,-0.14306 -0.69695,-0.64123 -0.75761,-0.88388 -0.0738,-0.29511 -0.24307,-0.67554 -0.37881,-0.94702 -0.15834,-0.31668 -0.16718,-0.5869 -0.31567,-0.88388 -0.13968,-0.27937 -0.27483,-0.6128 -0.44194,-0.94702 -0.13806,-0.27613 -0.3679,-0.46145 -0.44194,-0.75762 -0.0819,-0.32762 -0.23008,-0.60464 -0.31568,-0.94701 -0.0754,-0.3017 -0.1147,-0.60822 -0.25253,-0.88389 -0.14073,-0.28145 -0.35924,-0.4904 -0.63135,-0.69448 -0.28359,-0.21269 -0.54283,-0.42925 -0.82075,-0.56821 -0.29306,-0.14653 -0.56935,-0.28468 -0.88388,-0.44194 -0.20742,-0.10371 -0.49498,-0.31315 -0.75762,-0.37881 -0.14183,-0.0355 -0.65571,-0.16753 -0.82075,-0.12627 -0.1027,0.0257 -1.18297,0.0663 -1.13641,0.25255 z"
             id="path16962"
             sodipodi:nodetypes="cssssssssssscsssssssssssssssssscscsssssssssssssscsssssssssssssssssssssss"
             inkscape:connector-curvature="0" />
        </g>
      </g>
      <path
         id="path16964"
         d="m 603.52054,327.34698 c 0,1.00173 0,2.00347 0,3.0052 0,0.82496 0,1.64992 0,2.47488 0,0.98053 -0.17678,1.66323 -0.17678,2.47487 0,0.96666 -0.17678,1.45041 -0.17678,2.47487 0,0.93598 0.004,1.75011 -0.17678,2.47488 -0.14198,0.56793 0.14498,1.75001 0,2.47487 -0.16655,0.83275 -0.17677,1.83405 -0.17677,2.65165 0,0.82496 0,1.64992 0,2.47488 0,0.77928 -0.17678,1.36741 -0.17678,2.29809 0,0.88661 1.00796,0.0527 1.23744,-0.17677 0.65189,-0.6519 1.04389,-1.02713 1.41421,-1.76777 0.1814,-0.3628 1.14474,-0.83754 1.59099,-1.06066 0.68716,-0.34358 1.15601,-0.50997 1.94455,-0.70711 0.65179,-0.16295 -1.27269,-0.53033 -1.94455,-0.53033 -0.93101,0 -1.29857,-0.82937 -1.59099,-1.41421 -0.35674,-0.71348 -0.3079,-1.40837 -0.53033,-2.2981 -0.20171,-0.80686 -0.0188,-1.68485 -0.17677,-2.47487 -0.15327,-0.76635 -0.17678,-1.37712 -0.17678,-2.2981 0,-0.82496 0,-1.64992 0,-2.47487 0,-0.95972 0.17678,-1.36995 0.17678,-2.2981 0,-0.95972 0.17677,-1.36995 0.17677,-2.2981 0,-0.82496 0,-1.64991 0,-2.47487 0,-0.95472 -0.22083,-0.93698 -1.23743,-0.53033 z"
         style="fill:#504d4d;fill-opacity:1;fill-rule:evenodd;stroke:none;stroke-width:2;marker:none;visibility:visible;display:inline;overflow:visible;enable-background:accumulate"
         inkscape:connector-curvature="0" />
      <path
         id="path16966"
         d="m 611.29871,331.58962 c 0.17678,0.2357 0.35356,0.4714 0.53033,0.70711 0.47977,0.63968 0.73248,1.2628 1.23744,1.76776 0.71688,0.71688 1.05057,1.22735 1.59099,1.76777 0.46396,0.46396 0.95025,0.95025 1.41421,1.41421 0.58103,0.58103 1.05118,1.05118 1.59099,1.59099 0.49128,0.49128 1.06476,0.97432 1.59099,1.23744 0.45187,0.22593 1.105,0.81766 1.59099,1.06066 0.57535,0.28767 0.95202,0.74117 1.59099,1.06066 1.18395,0.59197 0.30489,0.53033 -0.7071,0.53033 -0.89516,0 -1.46433,0.17678 -2.47488,0.17678 -0.86628,0 -1.33839,-0.17678 -2.29809,-0.17678 -0.82496,0 -1.64992,0 -2.47488,0 -1.142,0 -1.2672,-0.0298 -1.94454,-0.70711 -0.31298,-0.31297 -0.55068,-1.49563 -0.70711,-2.12132 -0.18936,-0.75746 -0.52865,-1.05396 -0.7071,-1.76776 -0.18963,-0.7585 -0.17678,-1.61447 -0.17678,-2.47488 0,-0.75301 -0.35355,-1.66605 -0.35355,-2.47487 0,-0.5995 -0.51367,-1.55766 -0.70711,-1.94454 -0.31531,-0.63063 -0.45673,-1.26703 -0.70711,-1.76777 -0.28013,-0.56026 0.97129,0.79451 1.41422,1.23744 0.26679,0.26679 0.44031,0.61708 0.7071,0.88388 z"
         style="fill:#232323;fill-opacity:1;fill-rule:evenodd;stroke:none;stroke-width:2;marker:none;visibility:visible;display:inline;overflow:visible;enable-background:accumulate"
         inkscape:connector-curvature="0" />
      <path
         id="path16968"
         d="m 617.83945,357.04546 c 0.29463,0.17678 0.58925,0.35356 0.88388,0.53033 0.36971,0.22183 0.91251,0.91251 1.23744,1.23744 0.38443,0.38443 0.77111,1.01189 1.06066,1.59099 0.3885,0.777 0.79825,1.15181 1.23743,1.59099 0.40895,0.40894 0.10163,1.71484 0,2.12132 -0.22277,0.89112 -0.98947,-0.77591 -1.06066,-1.06066 -0.18687,-0.74751 -0.60562,-1.13595 -1.06066,-1.59099 -0.45524,-0.45524 -0.52055,-1.05089 -1.06066,-1.59099 -0.54102,-0.54103 -0.88609,-0.8883 -1.23743,-1.59099 -0.21731,-0.43462 -0.19801,-0.44541 0,-1.23744 z"
         style="fill:#232323;fill-opacity:1;fill-rule:evenodd;stroke:none;stroke-width:2;marker:none;visibility:visible;display:inline;overflow:visible;enable-background:accumulate"
         inkscape:connector-curvature="0" />
    </g>
  </g>
</svg>
