<?xml version="1.0" encoding="UTF-8" standalone="no"?>
<!-- Created with Inkscape (http://www.inkscape.org/) -->

<svg
   xmlns:dc="http://purl.org/dc/elements/1.1/"
   xmlns:cc="http://creativecommons.org/ns#"
   xmlns:rdf="http://www.w3.org/1999/02/22-rdf-syntax-ns#"
   xmlns:svg="http://www.w3.org/2000/svg"
   xmlns="http://www.w3.org/2000/svg"
   xmlns:sodipodi="http://sodipodi.sourceforge.net/DTD/sodipodi-0.dtd"
   xmlns:inkscape="http://www.inkscape.org/namespaces/inkscape"
   width="40"
   height="40"
   id="svg4279"
   version="1.1"
   inkscape:version="0.48.3.1 r9886"
   sodipodi:docname="arrow.svg"
   inkscape:export-filename="/home/substack/media/vector/arrow.png"
   inkscape:export-xdpi="56.25"
   inkscape:export-ydpi="56.25">
  <defs
     id="defs4281">
    <inkscape:perspective
       sodipodi:type="inkscape:persp3d"
       inkscape:vp_x="0 : 20 : 1"
       inkscape:vp_y="0 : 1000 : 0"
       inkscape:vp_z="40 : 20 : 1"
       inkscape:persp3d-origin="20 : 13.333333 : 1"
       id="perspective5693" />
  </defs>
  <sodipodi:namedview
     id="base"
     pagecolor="#ffffff"
     bordercolor="#666666"
     borderopacity="1.0"
     inkscape:pageopacity="0.0"
     inkscape:pageshadow="2"
     inkscape:zoom="11.313708"
     inkscape:cx="17.005959"
     inkscape:cy="15.241588"
     inkscape:document-units="px"
     inkscape:current-layer="layer1"
     showgrid="false"
     inkscape:window-width="1364"
     inkscape:window-height="766"
     inkscape:window-x="0"
     inkscape:window-y="0"
     inkscape:window-maximized="0" />
  <metadata
     id="metadata4284">
    <rdf:RDF>
      <cc:Work
         rdf:about="">
        <dc:format>image/svg+xml</dc:format>
        <dc:type
           rdf:resource="http://purl.org/dc/dcmitype/StillImage" />
        <dc:title></dc:title>
      </cc:Work>
    </rdf:RDF>
  </metadata>
  <g
     inkscape:label="Layer 1"
     inkscape:groupmode="layer"
     id="layer1"
     transform="translate(0,-1012.3622)">
    <path
       style="fill:#000000;fill-opacity:0.41960808;stroke:#ffffff;stroke-width:1px;stroke-linecap:round;stroke-linejoin:round;stroke-opacity:0"
       d="m 21.25184,1015.3426 c -0.57775,0.046 -1.748032,0.8767 -2.5,1.375 -1.10763,0.7337 -2.370737,1.9457 -3.34375,2.9375 -0.425042,0.4332 -0.606209,0.8166 -1.03125,1.25 -0.394452,0.402 -1.312948,0.7685 -1.59375,1.3438 -0.06226,0.1276 0.14135,0.2987 0.1875,0.3437 0.07223,0.068 0.575087,0 0.6875,0 0.913201,-0.01 2.842714,0.2376 3.625,-0.031 0.08569,-0.029 0.250587,-0.042 0.375,-0.062 -0.108006,2.3832 -0.06318,4.8549 -0.0625,6.9062 0,0.3008 0.03827,0.6466 0.0625,1 -0.155211,0.028 -0.318489,0.048 -0.46875,0.094 -0.7462,0.225 -6.1762,0.3268 -7.125,0.4687 -0.4173052,-0.5929 -0.2995512,-2.867 -0.5000002,-3.9375 -0.02358,-0.024 -0.04684,-0.043 -0.09375,-0.031 -0.328371,0.08 -1.1520679,0.9333 -1.3125,1.0937 -0.3110413,0.311 -0.8321261,0.5509 -1.25,0.9688 -0.5766479,0.5766 -0.9421482,1.2234 -1.40625,1.6875 -0.4981391,0.4981 -0.8826901,1.8514 -1.40625,2.375 -0.3186762,0.4174 -0.6079212,1.1365 -0.875,1.4687 -0.1411282,0.2822 0.6241449,1.2804 0.78125,1.4375 0.4770114,0.477 0.5713848,1.1964 0.875,1.5 0.2783506,0.2783 0.3701698,0.9951 0.625,1.25 0.5814691,0.5814 0.85865,1.39 1.5,2.0313 0.2377302,0.2378 0.2953957,0.6392 0.53125,0.875 0.1242269,0.1242 1.664354,1.5232 1.875,1.3125 0.387262,-0.9631 0.524451,-1.8915 0.4375,-3 0,-0.4825 0.02568,-0.9592 0.03125,-1.4375 0.7318402,-0.48 4.4719432,0.031 6.7187502,0.031 0.285221,0 0.634942,-0.04 0.96875,-0.062 0.115853,2.9091 0.424435,5.7843 0.6875,7.75 -0.782243,0.063 -1.553589,0.1314 -2.3125,0.1563 -0.239385,0.01 -2.321404,-0.2197 -2.46875,-0.062 -0.215656,0.2303 1.39074,1.7791 1.53125,1.8437 0.62379,0.2867 0.997417,1.2934 1.71875,1.625 0.343815,0.158 0.669808,0.4348 0.90625,0.6563 0.277815,0.2601 0.932252,0.4333 1.28125,0.5937 0.769114,0.3536 1.506725,1.0021 2.25,1.3438 0.183902,0.085 1.508988,0.9363 1.625,0.8125 0.617736,-0.6596 1.683843,-2.2513 2.46875,-2.8125 0.882009,-0.6307 1.709437,-1.3874 2.3125,-2.0313 0.751959,-0.8029 1.762163,-1.2228 2.34375,-1.8437 1.397586,-0.9021 -2.329435,-0.5056 -2.5,-0.5 -0.106428,0 -0.8283,-0.027 -1.53125,-0.031 -0.01194,-0.2031 -0.02744,-0.5001 -0.03125,-0.5937 -0.08401,-2.0634 -0.04648,-4.304 0.03125,-6.8125 2.88646,-0.1179 5.945785,-0.3324 7.875,-0.5938 0.02324,1.1757 0.01203,2.4573 0,3.0625 -0.0042,0.2103 0.03078,1.3431 0.0625,1.3438 0.131677,0 0.0925,-0.2525 0.1875,-0.3438 0.446724,-0.4294 1.612332,-1.9716 1.90625,-2.5312 0.380797,-0.7253 1.747997,-2.0488 2.25,-2.5313 0.346613,-0.3331 0.510075,-1.0117 0.75,-1.4687 0.34235,-0.652 0.841252,-1.3571 1.25,-1.75 0.04171,-0.041 -1.062597,-1.495 -1.1875,-1.625 -0.155811,-0.1621 -0.278452,-0.5091 -0.34375,-0.7188 -0.0071,-0.022 -1.999335,-2.8717 -2.0625,-2.9375 -0.359701,-0.3743 -0.96701,-0.8529 -1.46875,-1.375 -0.136086,-0.1416 -0.488911,-0.2021 -0.625,-0.3437 -0.286396,-0.2979 -0.548841,-0.6461 -1.0625,-0.6563 -0.01,1.4257 0.0094,2.8324 0,4.25 -0.174769,0.01 -0.447477,0.028 -0.53125,0.031 -2.085857,0.085 -4.588516,-0.048 -7.125,-0.125 -0.02335,-0.1126 -0.02938,-0.234 -0.0625,-0.3438 -0.224976,-0.7462 -0.326798,-6.1449 -0.46875,-7.0937 -0.01709,-0.139 -0.04576,-0.2205 -0.0625,-0.3125 1.481154,-0.049 3.613272,-0.1463 4.34375,-0.2813 0.618436,0.059 -0.69772,-0.9477 -0.71875,-0.9687 -1.175073,-1.1529 -2.466156,-1.9597 -3.5625,-2.8125 -1.294866,-1.0072 -2.594155,-2.5173 -3.75,-3.125 -0.05454,-0.029 -0.136214,-0.038 -0.21875,-0.031 z"
       id="path5781"
       inkscape:connector-curvature="0" />
    <g
       id="g16952"
       transform="matrix(0.63204495,0,0,0.63204495,-408.22605,813.61846)">
      <g
         inkscape:export-ydpi="100"
         inkscape:export-xdpi="100"
         inkscape:export-filename="/home/substack/a_browser_in_your_browser.png"
         transform="matrix(0.9998467,-0.0175113,0.0175113,0.9998467,521.23006,-247.52708)"
         id="g16954">
        <path
           sodipodi:nodetypes="cssssssssssssssssssssscssssssssssssssssssssscsssssssssssc"
           id="path16956"
           d="m 95.994899,616.00026 c -0.56269,-1.12537 -1.47094,-1.96125 -2.27284,-3.03046 -0.85998,-1.14663 -1.52973,-2.28371 -2.52539,-3.03046 -0.91028,-0.68271 -2.11998,-2.1532 -2.77792,-3.03045 -0.78973,-1.05298 -1.6981,-1.69811 -2.52538,-2.52538 -0.72512,-0.72512 -1.44662,-1.50793 -2.0203,-2.27285 -0.86012,-1.14682 2.90242,-0.60022 4.29315,-0.25254 1.62345,0.40587 3.89181,0 5.55584,0 1.5994,0 3.19881,0 4.79822,0 1.43774,0 3.920891,1.43659 4.293151,0 0.2748,-1.0605 -2.09135,-2.09134 -2.77792,-2.77792 -1.196511,-1.1965 -2.527481,-2.0224 -3.535541,-3.03045 -1.17186,-1.17186 -2.25776,-2.00523 -3.28299,-3.03046 -1.01583,-1.01582 -1.79209,-2.04463 -2.52538,-2.77792 -1.13811,-1.1381 -2.15777,-1.90523 -3.03046,-2.77792 -1.02294,-1.02294 -2.07998,-2.07998 -3.03046,-3.03046 -1.03779,-1.03779 -2.10756,-2.30501 -3.03046,-3.53553 -0.81713,-1.08951 -1.92851,-1.9821 -2.52538,-2.77792 -0.91514,-1.2202 -1.61229,-1.61229 -2.77792,-2.77792 -0.98154,-0.98154 -1.14905,-1.4016 -2.0203,-2.27284 -0.79725,-0.79726 -1.40081,-1.40081 -2.02031,-2.02031 -0.81235,-0.81235 -1.09092,-1.23633 -2.0203,-1.76777 -0.62139,-0.35533 -1.42578,-0.43009 -2.19888,-0.40047 0.18194,1.64139 0.43111,3.45552 0.43111,4.18855 0,1.26269 0,2.52538 0,3.78807 0,1.38913 -0.01193,2.71824 0.25254,4.04061 0.24824,1.24119 0,2.76984 0,4.04061 0,1.13316 0.25254,2.50558 0.25254,3.78807 0,1.26269 0,2.52538 0,3.78807 0,1.29238 -0.25254,2.26093 -0.25254,3.53554 0,1.52274 -0.25254,2.73874 -0.25254,4.29315 0,1.38905 -0.50507,2.81705 -0.50507,4.29314 0,1.25447 -0.25254,2.4361 -0.25254,3.78808 0,1.17851 0,2.35702 0,3.53553 0,1.13316 0.25254,2.50558 0.25254,3.78807 0,1.29238 -0.648244,3.21757 0.25253,3.53554 1.016546,0.35883 1.25803,-1.76311 2.02031,-2.52539 1.14066,-1.14066 1.39454,-2.40469 2.52538,-3.53553 0.93442,-0.93442 1.79213,-1.80025 2.52538,-2.77792 0.72489,-0.96652 0.70815,-0.83441 1.26269,-1.38896 0.77022,-0.77021 1.78237,-1.39626 2.52539,-1.76777 0.89735,-0.44868 1.16471,0.0566 1.76776,1.26269 0.45205,0.90409 0.90835,2.06924 1.26269,2.77792 0.5849,1.16979 1.16798,2.43067 2.02031,3.283 0.78593,0.78593 1.06081,2.728 1.26269,3.53553 0.04209,0.16836 0.08418,0.33672 0.12627,0.50508 0.13774,0.55098 0.42789,1.23459 0.63134,1.6415 0.24882,0.49763 0.51319,1.02637 0.75762,1.51522 0.27525,0.5505 0.37569,1.00704 0.88388,1.51523 0.40618,0.40618 0.91018,0.64449 1.38896,0.88389 0.41953,0.20976 1.34895,0 1.89403,-0.3788 0.58999,-0.41002 1.51593,-0.59996 2.14658,-0.75762 0.74817,-0.18705 1.13832,-0.66434 1.76777,-1.13642 0.52788,-0.39591 0.66985,-0.83465 1.01015,-1.51523 0.26637,-0.53274 0.23268,-1.18328 0.37881,-1.76777 0.16424,-0.65698 0,-1.03586 0,-1.6415 0,-0.35961 -0.24525,-0.67626 -0.37881,-1.01015 z"
           style="fill:#000000;fill-opacity:0.41850221;fill-rule:evenodd;stroke:none;stroke-width:2;marker:none;visibility:visible;display:inline;overflow:visible;enable-background:accumulate"
           inkscape:connector-curvature="0" />
        <g
           transform="translate(-483.69976,251.87253)"
           id="g16958">
          <path
             style="fill:#ffffff;fill-opacity:1;fill-rule:evenodd;stroke:#000000;stroke-width:2;stroke-linecap:round;stroke-linejoin:round;stroke-miterlimit:4;stroke-opacity:1;stroke-dasharray:none;stroke-dashoffset:0;marker:none;visibility:visible;display:inline;overflow:visible;enable-background:accumulate"
             d="m 578.47514,358.50325 c -0.56269,-1.12537 -1.47094,-1.96125 -2.27284,-3.03046 -0.85998,-1.14663 -1.52973,-2.28371 -2.52539,-3.03046 -0.91028,-0.68271 -2.11998,-2.1532 -2.77792,-3.03045 -0.78973,-1.05298 -1.6981,-1.69811 -2.52538,-2.52538 -0.72512,-0.72512 -1.44662,-1.50793 -2.0203,-2.27285 -0.86012,-1.14682 2.90242,-0.60022 4.29315,-0.25254 1.62345,0.40587 3.89181,0 5.55584,0 1.5994,0 3.19881,0 4.79822,0 1.43774,0 2.80911,0 4.29315,0 0.25623,0 -2.09135,-2.09134 -2.77792,-2.77792 -1.19651,-1.1965 -2.52748,-2.0224 -3.53554,-3.03045 -1.17186,-1.17186 -2.25776,-2.00523 -3.28299,-3.03046 -1.01583,-1.01582 -1.79209,-2.04463 -2.52538,-2.77792 -1.13811,-1.1381 -2.15777,-1.90523 -3.03046,-2.77792 -1.02294,-1.02294 -2.07998,-2.07998 -3.03046,-3.03046 -1.03779,-1.03779 -2.10756,-2.30501 -3.03046,-3.53553 -0.81713,-1.08951 -1.92851,-1.9821 -2.52538,-2.77792 -0.91514,-1.2202 -1.61229,-1.61229 -2.77792,-2.77792 -0.98154,-0.98154 -1.14905,-1.4016 -2.0203,-2.27284 -0.79725,-0.79726 -1.40081,-1.40081 -2.02031,-2.02031 -0.81235,-0.81235 -1.09092,-1.23633 -2.0203,-1.76777 -0.62139,-0.35533 -1.42578,-0.43009 -2.19888,-0.40047 0.18194,1.64139 0.43111,3.45552 0.43111,4.18855 0,1.26269 0,2.52538 0,3.78807 0,1.38913 -0.0119,2.71824 0.25254,4.04061 0.24824,1.24119 0,2.76984 0,4.04061 0,1.13316 0.25254,2.50558 0.25254,3.78807 0,1.26269 0,2.52538 0,3.78807 0,1.29238 -0.25254,2.26093 -0.25254,3.53554 0,1.52274 -0.25254,2.73874 -0.25254,4.29315 0,1.38905 -0.50507,2.81705 -0.50507,4.29314 0,1.25447 -0.25254,2.4361 -0.25254,3.78808 0,1.17851 0,2.35702 0,3.53553 0,1.13316 0.25254,2.50558 0.25254,3.78807 0,1.29238 0.25253,2.26093 0.25253,3.53554 0,1.07802 1.25803,-1.76311 2.02031,-2.52539 1.14066,-1.14066 1.39454,-2.40469 2.52538,-3.53553 0.93442,-0.93442 1.79213,-1.80025 2.52538,-2.77792 0.72489,-0.96652 0.70815,-0.83441 1.26269,-1.38896 0.77022,-0.77021 1.78237,-1.39626 2.52539,-1.76777 0.89735,-0.44868 1.16471,0.0566 1.76776,1.26269 0.45205,0.90409 0.90835,2.06924 1.26269,2.77792 0.5849,1.16979 1.16798,2.43067 2.02031,3.283 0.78593,0.78593 1.06081,2.728 1.26269,3.53553 0.0421,0.16836 0.0842,0.33672 0.12627,0.50508 0.13774,0.55098 0.42789,1.23459 0.63134,1.6415 0.24882,0.49763 0.51319,1.02637 0.75762,1.51522 0.27525,0.5505 0.37569,1.00704 0.88388,1.51523 0.40618,0.40618 0.91018,0.64449 1.38896,0.88389 0.41953,0.20976 1.34895,0 1.89403,-0.3788 0.58999,-0.41002 1.51593,-0.59996 2.14658,-0.75762 0.74817,-0.18705 1.13832,-0.66434 1.76777,-1.13642 0.52788,-0.39591 0.66985,-0.83465 1.01015,-1.51523 0.26637,-0.53274 0.23268,-1.18328 0.37881,-1.76777 0.16424,-0.65698 0,-1.03586 0,-1.6415 0,-0.35961 -0.24525,-0.67626 -0.37881,-1.01015 z"
             id="path16960"
             sodipodi:nodetypes="cssssssssssssssssssssscssssssssssssssssssssscsssssssssssc"
             inkscape:connector-curvature="0" />
          <path
             style="fill:#333030;fill-opacity:1;fill-rule:evenodd;stroke:#000000;stroke-width:2;stroke-linecap:butt;stroke-linejoin:round;stroke-miterlimit:4;stroke-opacity:1;stroke-dasharray:none;stroke-dashoffset:0;marker:none;visibility:visible;display:inline;overflow:visible;enable-background:accumulate"
             d="m 559.59792,346.00262 c -0.28153,0.28152 -0.47161,0.60624 -0.75762,0.82075 -0.32269,0.24201 -0.4721,0.4721 -0.75761,0.75761 -0.28717,0.28717 -0.5847,0.56915 -0.82075,0.88388 -0.24016,0.32021 -0.49873,0.5387 -0.75762,0.88389 -0.247,0.32934 -0.51182,0.63809 -0.82075,0.94702 -0.25805,0.25805 -0.52604,0.58918 -0.82074,0.88388 -0.32835,0.32835 -0.5529,0.61603 -0.88389,0.94702 -0.37488,0.37488 -0.59908,0.69354 -0.88388,1.07328 0,-0.0195 0.0631,-0.55959 0.0631,-0.75761 0,-0.33148 0.0631,-0.47799 0.0631,-0.82075 0,-0.33486 0.12627,-0.53505 0.12627,-0.82075 0,-0.33398 0.12627,-0.68673 0.12627,-1.01015 0,-0.43203 0.1894,-0.78672 0.1894,-1.19956 0,-0.30786 0.15145,-0.99199 -0.008,-1.31064 0.0298,-0.11905 0.0595,-0.2381 0.0893,-0.35715 0.14365,-0.57461 0.17857,-1.17685 0.17857,-1.78571 0,-0.51135 0.0893,-0.91487 0.0893,-1.42857 0,-0.47725 -0.0935,-1.05052 0,-1.51786 0.11105,-0.55527 0.17857,-1.31055 0.17857,-1.875 0,-0.60028 -0.0262,-1.2081 0.0893,-1.78571 0.0861,-0.43077 0.28745,-1.52878 0.17857,-1.96429 -0.12437,-0.49745 0,-0.97171 0,-1.51786 0,-0.54477 -0.0893,-0.98952 -0.0893,-1.51785 0,-0.50596 0,-1.01191 0,-1.51786 0,-0.58238 0,-0.8858 0,-1.42857 0,-0.44643 0,-0.89286 0,-1.33929 0,-0.47619 0,-0.95238 0,-1.42857 0,-0.53078 0.0893,-1.1107 0.0893,-1.60714 0,-0.47619 0,-0.95238 0,-1.42857 0,-0.44643 0,-0.89286 0,-1.33929 0,-0.47389 -0.0893,-0.98769 -0.0893,-1.42857 0,-0.426 0.10312,-1.0161 0,-1.42857 -0.12155,-0.48622 -0.0963,-1.06634 -0.0893,-1.60714 0.57497,-0.34499 0.6115,-0.27798 0.98214,0 0.24616,0.18462 0.64233,0.55304 0.89286,0.80357 0.15488,0.15488 0.68022,0.55688 0.80357,0.80357 0.22697,0.45394 0.63287,0.90073 0.98214,1.25 0.29361,0.29361 0.50798,0.50798 0.89286,0.89286 0.25555,0.25555 0.59247,0.49234 0.89285,0.89285 0.3207,0.4276 0.76046,0.65679 1.07143,1.07143 0.31199,0.41598 0.92321,0.86427 1.16072,1.33929 0.24637,0.49275 0.68854,0.86711 1.07143,1.25 0.40019,0.40019 0.83299,0.72376 1.16071,1.16071 0.42573,0.56764 1.01213,1.1907 1.51786,1.69643 0.38977,0.38978 0.83538,0.95648 1.07143,1.42857 0.29321,0.58644 0.87555,1.05413 1.33928,1.51786 0.59707,0.59707 1.24806,1.15877 1.875,1.78571 0.45905,0.45905 0.99808,0.94946 1.51786,1.33929 0,0.42719 0.7259,0.46325 1.02797,0.76532 0.28356,0.28356 0.67043,0.46148 1.01015,0.63134 0.24471,0.12236 0.57507,0.49444 0.75761,0.63135 0.26935,0.20201 0.54461,0.3552 0.69448,0.50508 0.2308,0.23079 0.41412,0.41412 0.56821,0.56821 0.22871,0.22871 0.33396,0.33396 0.50508,0.50507 0.26461,0.26462 0.4631,0.52624 0.63134,0.69448 0.19412,0.19412 0.33401,0.32484 0.56822,0.44194 0.10522,0.0421 0.21044,0.0842 0.31566,0.12627 0.17624,0.0705 0.40856,0.40856 0.50508,0.50508 0.19729,0.19728 0.37157,0.25253 -0.12627,0.25253 -0.31773,0 -0.60657,-0.12627 -0.94702,-0.12627 -0.28258,0 -0.57188,-0.0631 -0.88388,-0.0631 -0.36146,0 -0.60743,-0.0196 -0.82075,-0.12627 -0.21962,-0.10981 -0.62914,-0.0631 -0.88388,-0.0631 -0.28965,0 -0.6336,-0.0631 -0.94702,-0.0631 -0.33733,0 -0.56649,0 -0.88388,0 -0.31568,0 -0.63135,0 -0.94702,0 -0.31568,0 -0.63135,0 -0.94702,0 -0.3666,0 -0.64726,-0.0631 -1.01015,-0.0631 -0.28965,0 -0.6336,-0.0631 -0.94702,-0.0631 -0.29839,0 -0.61712,-0.0631 -0.94702,-0.0631 -0.28329,0 -0.62639,-0.0631 -0.94702,-0.0631 0,0.23407 -0.39356,-0.0242 -0.82074,0.18941 -0.15914,0.0796 -0.4972,0.21703 -0.69448,0.31567 -0.12725,0.0636 -0.69958,0.19449 -0.82075,0.31567 -0.19133,0.19133 -0.55853,0.42258 -0.69448,0.69448 -0.15605,0.3121 -0.29042,0.64397 -0.44194,0.94702 -0.168,0.33598 -0.22185,0.56469 -0.12627,0.94702 0.0692,0.2767 0.129,0.51054 0.25253,0.75761 0.12438,0.24875 0.39924,0.52551 0.56821,0.69448 0.1373,0.1373 0.39694,0.39693 0.56822,0.56821 0.15484,0.15484 0.36945,0.42947 0.56821,0.69448 0.22072,0.29431 0.29962,0.54681 0.50507,0.82075 0.18856,0.25141 0.34047,0.55466 0.50508,0.88388 0.15013,0.30026 0.3114,0.49655 0.44194,0.75762 0.13044,0.26089 0.34096,0.39148 0.56821,0.69448 0.17337,0.23116 0.43138,0.55764 0.69448,0.82075 0.19068,0.19067 0.5301,0.34904 0.69448,0.56821 0.17755,0.23673 0.4164,0.47953 0.69448,0.75761 0.28941,0.28941 0.36522,0.40278 0.63135,0.75762 0.21954,0.29272 0.27651,0.52905 0.50507,0.75761 0.26984,0.26984 0.3898,0.3898 0.63135,0.63135 0.21258,0.21257 0.36413,0.43093 0.63134,0.63134 0.25397,0.19048 0.65708,0.43028 0.82075,0.75762 0.15961,0.31922 0.35603,0.47471 0.56821,0.75761 0.14501,0.19335 0.44826,0.5177 0.56821,0.75762 0.15808,0.31615 0.35271,0.51601 0.50508,0.82074 0.15229,0.30458 0.27422,0.42217 0.44194,0.75762 0.16677,0.33354 0.23653,0.50416 0.31567,0.82075 0.0729,0.29178 0.0631,0.61907 0.0631,0.94702 0,0.25009 -0.008,0.72665 -0.12627,0.88388 -0.15265,0.20354 -0.33978,0.33978 -0.56821,0.56821 -0.14,0.14 -0.37625,0.28282 -0.56821,0.37881 -0.13209,0.066 -0.49998,0.31694 -0.75762,0.25254 -0.27151,-0.0679 -0.44425,-0.1742 -0.75761,-0.25254 -0.3714,-0.0928 -0.53267,-0.18145 -0.69448,-0.50508 -0.10831,-0.21663 -0.23741,-0.44454 -0.31567,-0.75761 -0.0966,-0.38647 -0.28469,-0.74328 -0.44194,-1.13642 -0.1409,-0.35224 -0.32734,-0.65468 -0.50508,-1.01016 -0.15007,-0.30013 -0.30162,-0.57514 -0.37881,-0.88388 -0.0781,-0.31244 -0.17302,-0.66173 -0.31567,-0.94702 -0.16882,-0.33763 -0.33322,-0.66643 -0.50508,-1.01015 -0.14098,-0.28198 -0.34325,-0.56024 -0.50507,-0.88389 -0.15409,-0.30816 -0.25181,-0.56747 -0.50508,-0.82074 -0.204,-0.204 -0.35184,-0.47812 -0.50508,-0.63135 -0.14305,-0.14306 -0.69695,-0.64123 -0.75761,-0.88388 -0.0738,-0.29511 -0.24307,-0.67554 -0.37881,-0.94702 -0.15834,-0.31668 -0.16718,-0.5869 -0.31567,-0.88388 -0.13968,-0.27937 -0.27483,-0.6128 -0.44194,-0.94702 -0.13806,-0.27613 -0.3679,-0.46145 -0.44194,-0.75762 -0.0819,-0.32762 -0.23008,-0.60464 -0.31568,-0.94701 -0.0754,-0.3017 -0.1147,-0.60822 -0.25253,-0.88389 -0.14073,-0.28145 -0.35924,-0.4904 -0.63135,-0.69448 -0.28359,-0.21269 -0.54283,-0.42925 -0.82075,-0.56821 -0.29306,-0.14653 -0.56935,-0.28468 -0.88388,-0.44194 -0.20742,-0.10371 -0.49498,-0.31315 -0.75762,-0.37881 -0.14183,-0.0355 -0.65571,-0.16753 -0.82075,-0.12627 -0.1027,0.0257 -1.18297,0.0663 -1.13641,0.25255 z"
             id="path16962"
             sodipodi:nodetypes="cssssssssssscsssssssssssssssssscscsssssssssssssscsssssssssssssssssssssss"
             inkscape:connector-curvature="0" />
        </g>
      </g>
      <path
         id="path16964"
         d="m 603.52054,327.34698 c 0,1.00173 0,2.00347 0,3.0052 0,0.82496 0,1.64992 0,2.47488 0,0.98053 -0.17678,1.66323 -0.17678,2.47487 0,0.96666 -0.17678,1.45041 -0.17678,2.47487 0,0.93598 0.004,1.75011 -0.17678,2.47488 -0.14198,0.56793 0.14498,1.75001 0,2.47487 -0.16655,0.83275 -0.17677,1.83405 -0.17677,2.65165 0,0.82496 0,1.64992 0,2.47488 0,0.77928 -0.17678,1.36741 -0.17678,2.29809 0,0.88661 1.00796,0.0527 1.23744,-0.17677 0.65189,-0.6519 1.04389,-1.02713 1.41421,-1.76777 0.1814,-0.3628 1.14474,-0.83754 1.59099,-1.06066 0.68716,-0.34358 1.15601,-0.50997 1.94455,-0.70711 0.65179,-0.16295 -1.27269,-0.53033 -1.94455,-0.53033 -0.93101,0 -1.29857,-0.82937 -1.59099,-1.41421 -0.35674,-0.71348 -0.3079,-1.40837 -0.53033,-2.2981 -0.20171,-0.80686 -0.0188,-1.68485 -0.17677,-2.47487 -0.15327,-0.76635 -0.17678,-1.37712 -0.17678,-2.2981 0,-0.82496 0,-1.64992 0,-2.47487 0,-0.95972 0.17678,-1.36995 0.17678,-2.2981 0,-0.95972 0.17677,-1.36995 0.17677,-2.2981 0,-0.82496 0,-1.64991 0,-2.47487 0,-0.95472 -0.22083,-0.93698 -1.23743,-0.53033 z"
         style="fill:#504d4d;fill-opacity:1;fill-rule:evenodd;stroke:none;stroke-width:2;marker:none;visibility:visible;display:inline;overflow:visible;enable-background:accumulate"
         inkscape:connector-curvature="0" />
      <path
         id="path16966"
         d="m 611.29871,331.58962 c 0.17678,0.2357 0.35356,0.4714 0.53033,0.70711 0.47977,0.63968 0.73248,1.2628 1.23744,1.76776 0.71688,0.71688 1.05057,1.22735 1.59099,1.76777 0.46396,0.46396 0.95025,0.95025 1.41421,1.41421 0.58103,0.58103 1.05118,1.05118 1.59099,1.59099 0.49128,0.49128 1.06476,0.97432 1.59099,1.23744 0.45187,0.22593 1.105,0.81766 1.59099,1.06066 0.57535,0.28767 0.95202,0.74117 1.59099,1.06066 1.18395,0.59197 0.30489,0.53033 -0.7071,0.53033 -0.89516,0 -1.46433,0.17678 -2.47488,0.17678 -0.86628,0 -1.33839,-0.17678 -2.29809,-0.17678 -0.82496,0 -1.64992,0 -2.47488,0 -1.142,0 -1.2672,-0.0298 -1.94454,-0.70711 -0.31298,-0.31297 -0.55068,-1.49563 -0.70711,-2.12132 -0.18936,-0.75746 -0.52865,-1.05396 -0.7071,-1.76776 -0.18963,-0.7585 -0.17678,-1.61447 -0.17678,-2.47488 0,-0.75301 -0.35355,-1.66605 -0.35355,-2.47487 0,-0.5995 -0.51367,-1.55766 -0.70711,-1.94454 -0.31531,-0.63063 -0.45673,-1.26703 -0.70711,-1.76777 -0.28013,-0.56026 0.97129,0.79451 1.41422,1.23744 0.26679,0.26679 0.44031,0.61708 0.7071,0.88388 z"
         style="fill:#232323;fill-opacity:1;fill-rule:evenodd;stroke:none;stroke-width:2;marker:none;visibility:visible;display:inline;overflow:visible;enable-background:accumulate"
         inkscape:connector-curvature="0" />
      <path
         id="path16968"
         d="m 617.83945,357.04546 c 0.29463,0.17678 0.58925,0.35356 0.88388,0.53033 0.36971,0.22183 0.91251,0.91251 1.23744,1.23744 0.38443,0.38443 0.77111,1.01189 1.06066,1.59099 0.3885,0.777 0.79825,1.15181 1.23743,1.59099 0.40895,0.40894 0.10163,1.71484 0,2.12132 -0.22277,0.89112 -0.98947,-0.77591 -1.06066,-1.06066 -0.18687,-0.74751 -0.60562,-1.13595 -1.06066,-1.59099 -0.45524,-0.45524 -0.52055,-1.05089 -1.06066,-1.59099 -0.54102,-0.54103 -0.88609,-0.8883 -1.23743,-1.59099 -0.21731,-0.43462 -0.19801,-0.44541 0,-1.23744 z"
         style="fill:#232323;fill-opacity:1;fill-rule:evenodd;stroke:none;stroke-width:2;marker:none;visibility:visible;display:inline;overflow:visible;enable-background:accumulate"
         inkscape:connector-curvature="0" />
    </g>
    <path
       style="fill:none;stroke:#000000;stroke-width:1px;stroke-linecap:round;stroke-linejoin:round;stroke-opacity:1"
       d="m 18.75184,1012.8417 c -0.57775,0.046 -1.748032,0.8767 -2.5,1.375 -1.10763,0.7337 -2.370737,1.9457 -3.34375,2.9375 -0.425042,0.4332 -0.606209,0.8166 -1.03125,1.25 -0.394452,0.402 -1.312948,0.7684 -1.59375,1.3437 -0.06226,0.1276 0.14135,0.2988 0.1875,0.3438 0.07223,0.068 0.575087,0 0.6875,0 0.913201,-0.01 2.842714,0.2378 3.625,-0.031 0.08569,-0.029 0.250587,-0.041 0.375,-0.062 -0.108006,2.3832 -0.06318,4.855 -0.0625,6.9063 0,0.3008 0.03827,0.6466 0.0625,1 -0.155211,0.028 -0.318489,0.048 -0.46875,0.094 -0.7462,0.225 -6.1762002,0.3269 -7.1250002,0.4688 -0.4173049,-0.5929 -0.2995514,-2.867 -0.5,-3.9375 -0.023581,-0.024 -0.04684,-0.043 -0.09375,-0.031 -0.3283713,0.08 -1.1520679,0.9334 -1.3125,1.0938 -0.3110413,0.311 -0.8321261,0.5508 -1.25,0.9687 -0.5766479,0.5766 -0.9421482,1.2234 -1.40625,1.6875 -0.4981391,0.4981 -0.8826901,1.8514 -1.40625,2.375 -0.3186762,0.4174 -0.60792117,1.1366 -0.87499997,1.4688 -0.1411282,0.2822 0.62414487,1.2804 0.78124997,1.4375 0.4770114,0.477 0.5713848,1.1964 0.875,1.5 0.2783506,0.2783 0.3701698,0.9951 0.625,1.25 0.5814691,0.5814 0.85865,1.3899 1.5,2.0312 0.2377302,0.2378 0.2953957,0.6392 0.53125,0.875 0.1242269,0.1242 1.6643537,1.5232 1.875,1.3125 0.3872617,-0.9631 0.5244513,-1.8915 0.4375,-3 0,-0.4825 0.025681,-0.9592 0.03125,-1.4375 0.73184,-0.48 4.4719432,0.031 6.7187502,0.031 0.285221,0 0.634942,-0.039 0.96875,-0.062 0.115853,2.9091 0.419073,5.7691 0.682138,7.7348 -0.782243,0.063 -1.553589,0.1313 -2.3125,0.1562 -0.239385,0.01 -2.324925,-0.2142 -2.472271,-0.057 -0.215656,0.2303 1.399623,1.789 1.540133,1.8536 0.62379,0.2867 0.997417,1.2934 1.71875,1.625 0.343815,0.158 0.669808,0.4347 0.90625,0.6562 0.277815,0.2601 0.932252,0.4334 1.28125,0.5938 0.769114,0.3536 1.506725,1.002 2.25,1.3437 0.183902,0.085 1.508988,0.9363 1.625,0.8125 0.617736,-0.6596 1.683843,-2.2513 2.46875,-2.8125 0.882009,-0.6307 1.709437,-1.3873 2.3125,-2.0312 0.751959,-0.8029 1.762163,-1.2229 2.34375,-1.8438 1.397586,-0.9021 -2.334797,-0.5208 -2.505362,-0.5152 -0.106428,0 -0.8283,-0.027 -1.53125,-0.031 -0.01194,-0.2031 -0.02744,-0.5002 -0.03125,-0.5938 -0.08401,-2.0634 -0.04112,-4.2888 0.03661,-6.7973 2.88646,-0.1179 5.945785,-0.3323 7.875,-0.5937 0.02324,1.1757 0.01203,2.4573 0,3.0625 -0.0042,0.2103 0.03078,1.343 0.0625,1.3437 0.131677,0 0.0925,-0.2524 0.1875,-0.3437 0.446724,-0.4294 1.612332,-1.9717 1.90625,-2.5313 0.380797,-0.7253 1.747997,-2.0487 2.25,-2.5312 0.346613,-0.3331 0.510075,-1.0118 0.75,-1.4688 0.34235,-0.652 0.841252,-1.3571 1.25,-1.75 0.04171,-0.041 -1.062597,-1.495 -1.1875,-1.625 -0.155811,-0.1621 -0.278452,-0.509 -0.34375,-0.7187 -0.0071,-0.022 -1.999335,-2.8717 -2.0625,-2.9375 -0.359701,-0.3743 -0.96701,-0.8529 -1.46875,-1.375 -0.136086,-0.1416 -0.488911,-0.2022 -0.625,-0.3438 -0.286396,-0.2979 -0.548841,-0.646 -1.0625,-0.6562 -0.01,1.4257 0.0094,2.8324 0,4.25 -0.174769,0.01 -0.447477,0.028 -0.53125,0.031 -2.085857,0.085 -4.588516,-0.048 -7.125,-0.125 -0.02335,-0.1126 -0.02938,-0.2339 -0.0625,-0.3437 -0.224976,-0.7462 -0.326798,-6.145 -0.46875,-7.0938 -0.01709,-0.139 -0.04576,-0.2205 -0.0625,-0.3125 1.481154,-0.049 3.613272,-0.1462 4.34375,-0.2812 0.618436,0.059 -0.69772,-0.9478 -0.71875,-0.9688 -1.175073,-1.1529 -2.466156,-1.9597 -3.5625,-2.8125 -1.294866,-1.0072 -2.594155,-2.5173 -3.75,-3.125 -0.05454,-0.029 -0.136214,-0.038 -0.21875,-0.031 z"
       id="path4659"
       inkscape:connector-curvature="0"
       sodipodi:nodetypes="ccccccccccccccccccccscccscccscccccccccccscccscccccccccccccccccccccccsccc" />
    <path
       style="fill:#333030;fill-opacity:1;stroke:#000000;stroke-width:1px;stroke-linecap:round;stroke-linejoin:round;stroke-opacity:1"
       d="m 18.81434,1015.3426 c -0.428161,0.1393 -1.887281,0.981 -2.03125,1.125 -1.10051,0.842 -1.94552,1.3063 -2.875,2.1562 0.468654,-0.01 0.906706,-0.016 1.0625,-0.094 0.290964,-0.1455 1.166723,0.1292 1.75,0.094 0.369029,-0.022 0.265401,1.467 0.0625,2.1563 -0.04794,0.1629 0.02323,2.0693 0.03125,3.0312 0.0061,0.7285 -0.01753,2.5333 0.0625,3.7188 0.05621,0.8326 0.293802,1.5812 -0.15625,2.0312 -0.734119,0.2038 -2.57747,0 -3.125,0 -1.907245,0 -3.460806,0.1741 -5.3750002,0.25 l -2.21875,0.094 c -0.00949,-0.8223 -0.069427,-1.5623 -0.125,-2.3438 -0.1955607,0.1819 -0.3684561,0.306 -0.5625,0.5 -0.1573716,0.1574 -0.1583438,0.4084 -0.28125,0.5313 -0.5262926,0.5263 -0.8315855,1.1753 -1.40625,1.75 -0.4453801,0.4454 -1.3413902,1.5961 -0.96875,1.9687 0.1892645,0.1893 0.2482356,0.6858 0.4375,0.875 0.6145388,0.6146 1.1926351,2.1614 1.84375,2.8125 0.4535053,0.5504 0.6214746,1.2243 1.09375,1.75 0.073539,-0.3519 0.03125,-0.7318 0.03125,-1.0937 0,-0.5673 -0.4272103,-1.1665 0.03125,-1.625 0.2556311,-0.4923 1.1322204,-0.6877 1.65625,-0.5938 1.773341,-0.063 4.9679512,0.1104 6.3125002,0.062 0.553457,-0.012 1.108994,0.031 1.5625,0.031 0.66226,-0.1929 0.673172,0.354 0.84375,0.625 0.286627,0.2866 0.510723,3.3758 0.6875,5.6562 0.07544,0.9733 0.274656,3.2905 0.15625,3.7608 0.04738,0.095 0.244324,0.4744 0.1875,0.5312 -0.199674,0.1997 -1.570414,0.064 -2.40625,0.062 -0.127784,-0.033 -0.442406,-0.01 -0.8125,0.031 0.438338,0.3726 0.910513,0.681 1.28125,1.0517 1.393164,0.816 2.66512,1.29 3.875,2.2822 0.03726,0.037 0.218222,0.2188 0.28125,0.2188 0.07619,0 0.736294,-0.6426 0.84375,-0.75 0.53,-0.7101 1.159348,-0.8489 1.71875,-1.4385 0.398818,-0.3988 1.274498,-1.0326 1.691942,-1.4892 -0.463665,0.054 -1.010859,-0.027 -1.432139,-0.1326 -0.205825,-0.052 -0.88929,0.1679 -0.978553,-0.01 -0.203758,-0.3955 -0.1875,-1.3672 -0.1875,-1.529 0,-0.6717 0.07591,-1.8036 -0.125,-2.4063 -0.09123,-0.2737 0.09375,-1.0435 0.09375,-1.4062 0,-0.582 -0.0833,-1.3127 0.09375,-1.8438 0.137582,-0.4129 -0.04334,-1.1512 0.125,-1.6562 0.156861,-0.4706 -0.155047,-0.72 0.21875,-1.0938 0.06624,-0.066 0.06943,-0.2066 0.21875,-0.2812 0.46065,-0.2304 1.288778,-0.1359 1.875,-0.125 0.76195,-0.049 2.022755,-0.1729 2.875,-0.3125 0.255421,-0.1278 1.213846,-0.01 1.5,-0.031 0.595011,-0.051 1.296686,-0.1562 2.1875,-0.1562 0.170188,0 2.1197,-0.1616 2.125,-0.1563 0.03349,0.034 0.0625,0.2547 0.0625,0.3125 0,0.1944 0.0398,0.9712 0,1.5625 0.338202,-0.251 0.608326,-1.0458 0.78125,-1.2187 0.181773,-0.1818 0.325027,-0.6188 0.4375,-0.8438 0.100345,-0.2007 0.592978,-0.6867 0.75,-0.8437 0.148506,-0.1485 0.2839,-0.3803 0.375,-0.5625 0.185252,-0.3705 0.55088,-0.7498 0.90625,-1.0313 -0.100391,-0.1346 -0.24316,-0.2676 -0.25,-0.2812 -0.0846,-0.1692 -0.295799,-0.3104 -0.40625,-0.5313 -0.215267,-0.4305 -0.417431,-0.8237 -0.65625,-1.0625 -0.115493,-0.1155 -0.213274,-0.4945 -0.40625,-0.6875 -0.169332,-0.1693 -0.29892,-0.5353 -0.40625,-0.75 -0.228816,-0.4576 -0.985535,-1.2355 -1.28125,-1.5312 -0.005,-0 -0.02599,0.01 -0.03125,0 -0.0051,0.1465 0.01269,0.2917 0,0.4375 -0.0022,0.7677 0.01923,1.7245 -0.0625,2.3125 -0.256881,0.2568 -1.151695,0.1343 -1.53125,0.2187 -0.896166,0.1993 -3.284993,-0.062 -4.25,0.062 -0.126864,0.016 -1.286306,0.056 -1.4375,0.094 -0.431167,-0.023 -0.870937,-0.031 -1.28125,-0.031 -0.814216,-0.1034 -1.42201,-0.028 -2.0625,-0.031 -0.179091,-0.1791 -0.615278,-3.2792 -0.46875,-3.7188 0.05168,-0.771 -0.0029,-1.6414 0.03125,-2.3437 -0.149742,-0.2995 -0.0035,-1.1007 -0.125,-1.3438 -0.204281,-0.4085 -0.21875,-1.7666 -0.21875,-2.3437 0,-0.162 -0.103116,-0.8969 0,-1 0.316599,-0.3166 1.508437,-0.085 1.84375,-0.2188 -0.50808,-0.5129 -0.928106,-0.9906 -1.21875,-1.2812 -0.738717,-0.7387 -2.00955,-1.1971 -2.75,-1.9375 -0.01342,-0.013 -0.03258,-0.02 -0.09375,0 z"
       id="path5607"
       inkscape:connector-curvature="0"
       sodipodi:nodetypes="cccssscscscccsssssccscccccscsccccsccccsssscssscccssscsssccsssssscccscccccccsscscc" />
    <path
       sodipodi:type="inkscape:offset"
       inkscape:radius="-0.440137"
       inkscape:original="M 19.875 3.6875 C 19.446839 3.8268204 17.987719 4.6685308 17.84375 4.8125 C 16.74324 5.6544892 15.89823 6.1188336 14.96875 6.96875 C 15.437404 6.96178 15.875456 6.952897 16.03125 6.875 C 16.322214 6.7295179 17.197973 7.0041907 17.78125 6.96875 C 17.965764 6.957539 18.036391 7.3255488 18.03125 7.78125 C 18.02615 8.2369512 17.9452 8.7803432 17.84375 9.125 C 17.79581 9.2878614 17.86698 11.194273 17.875 12.15625 C 17.8811 12.884711 17.85747 14.689461 17.9375 15.875 C 17.96561 16.291313 18.052332 16.683773 18.0625 17.03125 C 18.07267 17.378727 18.00628 17.681221 17.78125 17.90625 C 17.047131 18.110039 15.20378 17.90625 14.65625 17.90625 C 12.749005 17.90625 11.195444 18.080298 9.28125 18.15625 L 7.0625 18.25 C 7.05301 17.427679 6.993073 16.687736 6.9375 15.90625 C 6.7419393 16.088104 6.5690439 16.212206 6.375 16.40625 C 6.2176284 16.563622 6.2166562 16.814594 6.09375 16.9375 C 5.5674574 17.463793 5.2621645 18.112836 4.6875 18.6875 C 4.4648099 18.91019 4.139345 19.297565 3.90625 19.6875 C 3.673155 20.077435 3.5324299 20.46993 3.71875 20.65625 C 3.751195 20.68869 3.75515 20.765094 3.78125 20.8125 C 3.87759 20.8195 3.9528701 20.86732 4.0625 20.8125 C 4.7052006 20.491149 5.169927 20.080073 5.65625 19.59375 C 5.735673 19.51433 8.7228251 19.923913 8.9375 20.03125 C 9.3678269 20.246414 10.101734 19.910241 10.53125 20.125 C 11.151467 20.435108 11.685973 20.1875 12.375 20.1875 C 13.558757 20.1875 16.549536 20.450464 17.25 19.75 C 17.361117 19.638883 17.740051 19.69745 17.84375 19.59375 C 17.90183 19.53567 19.222379 19.277621 19.625 18.875 C 20.534348 17.965653 20.0625 13.567439 20.0625 12.15625 C 20.0625 11.888802 19.753499 11.243002 19.875 11 C 19.978921 10.792159 19.95776 6.8842681 19.8125 6.59375 C 19.599246 6.1672356 19.317539 6.0725785 19.09375 5.625 C 18.81929 5.0760793 19.42138 4.4550148 20.03125 3.75 C 20.01139 3.731199 19.98792 3.706669 19.96875 3.6875 C 19.95533 3.674081 19.93617 3.667597 19.875 3.6875 z "
       style="fill:#504d4d;fill-opacity:1;stroke:#ffffff;stroke-width:1px;stroke-linecap:butt;stroke-linejoin:miter;stroke-opacity:0"
       id="path5664"
       d="m 18.75,4.78125 c -0.11877,0.069241 -0.250835,0.1299939 -0.34375,0.1875 -0.07831,0.048466 -0.172423,0.0935 -0.21875,0.125 -0.04633,0.0315 -0.06887,0.068866 -0.03125,0.03125 A 0.44018101,0.44018101 0 0 1 18.125,5.15625 c -0.665404,0.5090941 -1.154851,0.8659682 -1.6875,1.25 0.142089,0.00856 0.260676,0.010824 0.40625,0.03125 0.335711,0.047104 0.69663,0.1064868 0.90625,0.09375 0.193326,-0.011746 0.406108,0.1030199 0.5,0.21875 0.09389,0.1157301 0.12661,0.2346203 0.15625,0.34375 0.05928,0.2182594 0.06534,0.4355791 0.0625,0.6875 -0.0056,0.5038998 -0.06857,1.0647194 -0.1875,1.46875 0.03102,-0.1053632 0.0023,-0.028519 0,0.03125 -0.0023,0.059769 -2.7e-5,0.1447712 0,0.25 5.4e-5,0.2104576 -0.0064,0.505066 0,0.8125 0.01275,0.614869 0.02717,1.323082 0.03125,1.8125 0.0062,0.744065 -0.01512,2.537718 0.0625,3.6875 0.02526,0.374156 0.112975,0.776571 0.125,1.1875 0.01203,0.410934 -0.07237,0.853624 -0.40625,1.1875 a 0.44018101,0.44018101 0 0 1 -0.1875,0.125 c -0.494982,0.137405 -1.14775,0.119735 -1.78125,0.09375 -0.6335,-0.02598 -1.249591,-0.09375 -1.46875,-0.09375 -1.880468,0 -3.412366,0.173366 -5.34375,0.25 L 7.09375,18.6875 A 0.44018101,0.44018101 0 0 1 6.625,18.25 C 6.6198607,17.804676 6.5891155,17.390301 6.5625,16.96875 6.5316658,17.056357 6.5226638,17.133586 6.40625,17.25 5.9477163,17.708534 5.6367201,18.36328 5,19 c -0.1938489,0.193849 -0.5123653,0.560998 -0.71875,0.90625 -0.066719,0.111612 -0.088369,0.19131 -0.125,0.28125 0.4272935,-0.260728 0.8040746,-0.522825 1.1875,-0.90625 6.205e-4,-6.2e-4 0.067235,-0.0472 0.09375,-0.0625 0.026515,-0.0153 0.044008,-0.02421 0.0625,-0.03125 0.036984,-0.01409 0.072883,-0.0272 0.09375,-0.03125 0.041734,-0.0081 0.068242,0.0013 0.09375,0 0.051015,-0.0026 0.1038356,-0.0022 0.15625,0 0.1048288,0.0045 0.2232603,0.01636 0.375,0.03125 0.3034794,0.02978 0.6981372,0.07154 1.09375,0.125 0.3956128,0.05346 0.7753596,0.102838 1.09375,0.15625 0.1591952,0.02671 0.2943696,0.07045 0.40625,0.09375 0.1118804,0.0233 0.1531444,-0.01718 0.3125,0.0625 0.043635,0.02182 0.2716036,0.0303 0.5625,0 0.2908964,-0.0303 0.64464,-0.09956 1.03125,0.09375 0.222962,0.111481 0.427479,0.145238 0.6875,0.125 0.260021,-0.02024 0.571514,-0.09375 0.96875,-0.09375 0.62447,0 1.637038,0.05248 2.59375,0.03125 0.478356,-0.01061 0.954241,-0.02717 1.3125,-0.09375 0.358259,-0.06658 0.601607,-0.195357 0.65625,-0.25 0.129894,-0.129894 0.253455,-0.167386 0.34375,-0.1875 0.0903,-0.02011 0.156966,-0.02504 0.21875,-0.03125 0.06178,-0.0062 0.109125,0.0033 0.125,0 0.02412,-0.01085 0.07829,-0.05632 0.09375,-0.0625 0.03091,-0.01235 0.03568,0.0085 0.0625,0 0.05364,-0.01693 0.117516,-0.04294 0.1875,-0.0625 0.139969,-0.03913 0.315826,-0.09825 0.5,-0.15625 0.368349,-0.115998 0.779324,-0.310574 0.84375,-0.375 0.08844,-0.08844 0.265725,-0.475493 0.34375,-1 0.07803,-0.524507 0.09586,-1.16092 0.09375,-1.84375 -0.0042,-1.36566 -0.125,-2.80785 -0.125,-3.5625 0,0.03578 -0.05832,-0.226749 -0.125,-0.46875 -0.03334,-0.121 -0.07705,-0.236051 -0.09375,-0.375 -0.01464,-0.121848 -6.34e-4,-0.272599 0.0625,-0.4375 -0.0033,0.02424 -0.05586,0.04921 0,-0.0625 0.0025,-0.02397 -0.0025,-0.05903 0,-0.09375 0.0083,-0.115747 0.02617,-0.272651 0.03125,-0.46875 0.01016,-0.3921982 0.0052,-0.8909979 0,-1.40625 -0.0052,-0.5152521 -0.01095,-1.036598 -0.03125,-1.4375 -0.01015,-0.200451 -0.01842,-0.3786187 -0.03125,-0.5 -0.0064,-0.060691 -0.02624,-0.097449 -0.03125,-0.125 C 19.328467,6.6256815 19.250988,6.5401654 19.125,6.40625 18.999012,6.2723346 18.826881,6.0912624 18.6875,5.8125 18.512353,5.462206 18.609401,5.1042519 18.75,4.78125 z"
       transform="translate(-1.0606602,1011.6551)" />
    <path
       sodipodi:type="inkscape:offset"
       inkscape:radius="-0.50383633"
       inkscape:original="M 18.28125 22.625 C 17.682167 22.579927 16.980256 22.697883 16.3125 22.875 C 16.431605 22.8786 16.578702 22.875 16.6875 22.875 C 17.01863 22.77857 17.174417 22.85352 17.28125 23 C 17.388083 23.146482 17.445961 23.364498 17.53125 23.5 C 17.817877 23.786627 18.041973 26.875811 18.21875 29.15625 C 18.29419 30.129494 18.493406 32.435948 18.375 32.90625 C 18.42238 33.001 18.619324 33.380676 18.5625 33.4375 C 18.362826 33.637174 16.992086 33.50192 16.15625 33.5 C 16.028466 33.46726 15.713844 33.4911 15.34375 33.53125 C 15.782088 33.903929 16.254263 34.223013 16.625 34.59375 C 16.880755 34.743535 17.095798 34.867938 17.34375 35 C 17.485987 35.01647 17.712395 35.02807 17.78125 35.0625 C 17.966802 35.15528 19.139388 35.423112 19.34375 35.21875 C 19.600121 34.962379 19.826101 34.486399 20.0625 34.25 C 20.08503 34.22747 19.71875 29.788385 19.71875 28.5 C 19.71875 27.292345 20.015945 24.156888 19.625 23.375 C 19.376587 22.878173 18.880333 22.670073 18.28125 22.625 z "
       style="fill:#4f4c4c;fill-opacity:1;stroke:#ffffff;stroke-width:1px;stroke-linecap:butt;stroke-linejoin:miter;stroke-opacity:0"
       id="path5684"
       d="m 18.25,23.125 c -0.08648,-0.0065 -0.217715,0.02981 -0.3125,0.03125 0.0027,0.0077 0.03006,0.06061 0.03125,0.0625 L 17.9375,23.25 c 0.08945,0.123488 0.154421,0.230225 0.1875,0.34375 0.04258,0.146121 0.05983,0.306476 0.09375,0.5 0.06785,0.387048 0.1299,0.884908 0.1875,1.4375 0.115201,1.105184 0.224198,2.454653 0.3125,3.59375 0.03745,0.483127 0.111285,1.296377 0.15625,2.0625 0.02248,0.383062 0.0279,0.7511 0.03125,1.0625 0.0025,0.236784 -0.0062,0.411688 -0.03125,0.59375 0.0275,0.05625 0.06318,0.08382 0.09375,0.15625 0.0294,0.06965 0.07084,0.126682 0.09375,0.21875 0.01145,0.04603 -2.04e-4,0.105013 0,0.1875 2.04e-4,0.08249 0.0015,0.217264 -0.15625,0.375 -0.27384,0.27384 -0.451727,0.231471 -0.65625,0.25 -0.204523,0.01853 -0.411774,0.03596 -0.65625,0.03125 -0.308132,-0.0059 -0.603781,-0.02025 -0.90625,-0.03125 0.05765,0.05039 0.13131,0.07184 0.1875,0.125 0.219824,0.128742 0.424782,0.234972 0.625,0.34375 0.04948,0.0046 0.09571,0.02449 0.15625,0.03125 0.09597,0.01071 0.131987,-0.01214 0.34375,0.09375 -0.05674,-0.02837 0.06368,1.52e-4 0.1875,0.03125 0.123824,0.0311 0.284337,0.07 0.4375,0.09375 0.153163,0.02375 0.311787,0.0327 0.40625,0.03125 0.09446,-0.0015 0.126917,-0.06442 -0.03125,0.09375 0.07028,-0.07028 0.163775,-0.257851 0.28125,-0.4375 0.07581,-0.115939 0.187962,-0.222394 0.28125,-0.34375 -0.0077,-0.122824 -0.0157,-0.312015 -0.03125,-0.53125 -0.0311,-0.43847 -0.08055,-1.049607 -0.125,-1.6875 -0.0889,-1.275785 -0.1875,-2.683062 -0.1875,-3.375 0,-0.645158 0.0687,-1.732899 0.09375,-2.75 0.01253,-0.50855 0.02546,-0.978094 0,-1.375 -0.02546,-0.396906 -0.09892,-0.729092 -0.125,-0.78125 C 19.033953,23.286655 18.754147,23.16293 18.25,23.125 z"
       transform="translate(-1.0606602,1011.6551)" />
    <path
       sodipodi:type="inkscape:offset"
       inkscape:radius="-0.38458836"
       inkscape:original="M 33.5 14.8125 C 33.4949 14.959069 33.51269 15.104271 33.5 15.25 C 33.4978 16.017707 33.51923 16.974524 33.4375 17.5625 C 33.180619 17.819381 32.285805 17.696859 31.90625 17.78125 C 31.010084 17.980506 28.621257 17.71942 27.65625 17.84375 C 27.529386 17.8601 26.369944 17.8997 26.21875 17.9375 C 25.787583 17.91466 25.347813 17.90625 24.9375 17.90625 C 24.431628 17.842 24.060106 17.86292 23.65625 17.875 C 23.70031 18.032423 23.62851 18.191014 23.78125 18.34375 C 24.017428 18.579928 24.609298 18.2734 24.9375 18.4375 C 26.404739 19.17112 28.200359 19.0625 29.96875 19.0625 C 30.313312 19.0625 31.003051 19.1532 31.1875 18.96875 C 31.408471 18.747779 32.216529 19.095973 32.4375 18.875 C 32.635353 18.677147 34.063304 18.90545 34.28125 18.6875 L 34.65625 18.34375 C 34.833634 18.166366 34.62834 17.712068 34.75 17.46875 C 34.852915 17.26292 34.89368 16.97453 35 16.71875 C 34.93445 16.581502 34.865229 16.449207 34.8125 16.34375 C 34.583684 15.886118 33.826965 15.108214 33.53125 14.8125 C 33.52625 14.8075 33.50526 14.8175 33.5 14.8125 z "
       style="fill:#504d4d;fill-opacity:1;stroke:#ffffff;stroke-width:1px;stroke-linecap:butt;stroke-linejoin:miter;stroke-opacity:0"
       id="path5706"
       d="m 33.875,15.75 c 0.0028,0.646393 0.0092,1.359054 -0.0625,1.875 a 0.38462682,0.38462682 0 0 1 -0.09375,0.21875 c -0.15397,0.15397 -0.337611,0.185283 -0.5,0.21875 -0.162389,0.03347 -0.339021,0.05611 -0.5,0.0625 -0.321957,0.01277 -0.629971,0.01151 -0.71875,0.03125 -0.553498,0.123066 -1.386086,0.08741 -2.21875,0.0625 -0.832664,-0.02491 -1.653723,-0.05267 -2.0625,0 -0.08585,0.01106 -0.18239,0.02459 -0.3125,0.03125 -0.13011,0.0067 -0.276184,0.02297 -0.4375,0.03125 -0.161316,0.0083 -0.310321,-0.0089 -0.4375,0 -0.127179,0.0089 -0.27783,0.04602 -0.21875,0.03125 a 0.38462682,0.38462682 0 0 1 -0.125,0 c -0.158283,-0.0084 -0.30942,0.0047 -0.46875,0 1.241982,0.408125 2.716326,0.375 4.25,0.375 0.206026,0 0.442503,3.42e-4 0.65625,0 0.106874,-1.71e-4 0.222927,0.01059 0.28125,0 0.173824,-0.173824 0.378907,-0.184898 0.53125,-0.1875 0.152343,-0.0026 0.308871,0.01535 0.4375,0.03125 0.128629,0.0159 0.244279,0.03242 0.3125,0.03125 0.101861,-0.08529 0.200425,-0.106847 0.28125,-0.125 0.09185,-0.02063 0.186876,-0.02563 0.28125,-0.03125 0.188748,-0.01123 0.390066,-0.0025 0.59375,0 0.203684,0.0025 0.420714,0.01044 0.5625,0 0.124063,-0.0091 0.185769,-0.06167 0.125,0 l 0.3125,-0.28125 c 0.0024,-0.02236 0.0066,-0.07796 0,-0.15625 -0.01314,-0.156583 -0.07984,-0.402812 0.0625,-0.6875 0.04207,-0.08413 0.116832,-0.312847 0.1875,-0.53125 -0.04085,-0.08148 -0.08936,-0.147469 -0.125,-0.21875 -0.07755,-0.155099 -0.316419,-0.471174 -0.5625,-0.75 -0.01144,-0.01296 -0.01977,-0.01836 -0.03125,-0.03125 z"
       transform="translate(-0.97227182,1011.8319)" />
    <path
       sodipodi:type="inkscape:offset"
       inkscape:radius="-0.41304985"
       inkscape:original="M 20.53125 4.09375 C 20.435052 4.2555206 20.38057 4.43193 20.25 4.5625 C 19.901921 4.9105784 20.614387 5.989387 20.6875 6.0625 C 20.816465 6.1914649 21.496386 6.257229 21.375 6.5 C 21.29293 6.6641297 20.902021 7.0979786 20.78125 7.21875 C 20.68293 7.31707 20.915163 10.352663 20.9375 10.375 C 21.073518 10.511018 20.78199 11.344488 20.875 11.4375 C 21.095532 11.658032 21.042819 13.133111 20.875 13.46875 C 20.695771 13.827207 21.031071 17.906071 21.03125 17.90625 C 21.303514 18.178515 21.496605 18.809105 21.75 19.0625 C 22.121134 19.433634 23.192803 18.707915 24.1875 17.90625 C 23.744705 17.901618 23.282638 17.877342 22.875 17.875 C 22.695909 17.695908 22.259722 14.595835 22.40625 14.15625 C 22.45793 13.385214 22.40335 12.514826 22.4375 11.8125 C 22.287758 11.513007 22.434 10.71179 22.3125 10.46875 C 22.108219 10.060191 22.09375 8.7020922 22.09375 8.125 C 22.09375 7.9629612 21.990634 7.2281159 22.09375 7.125 C 22.410349 6.8084009 23.602187 7.0394983 23.9375 6.90625 C 23.42942 6.3932687 23.009394 5.9156442 22.71875 5.625 C 22.132392 5.0386416 21.256766 4.6081059 20.53125 4.09375 z "
       style="fill:#232323;fill-opacity:1;stroke:#ffffff;stroke-width:1px;stroke-linecap:butt;stroke-linejoin:miter;stroke-opacity:0"
       id="path5726"
       d="m 20.625,4.6875 c -0.04081,0.060958 -0.03001,0.092506 -0.09375,0.15625 0.03823,-0.038234 0.02061,-0.053466 0.03125,0.03125 0.01064,0.084716 0.06299,0.2359431 0.125,0.375 0.06201,0.1390569 0.154723,0.2705549 0.21875,0.375 0.03201,0.052223 0.04207,0.095553 0.0625,0.125 0.0082,0.00531 -0.0017,-0.011574 0.03125,0 0.0659,0.023147 0.178648,0.055988 0.28125,0.09375 0.102602,0.037762 0.184847,0.076542 0.3125,0.1875 0.06383,0.055479 0.151123,0.1539722 0.1875,0.28125 0.03638,0.1272778 0.02008,0.2723387 -0.03125,0.375 -0.09325,0.1864862 -0.213873,0.3167215 -0.34375,0.46875 -0.09446,0.1105662 -0.176794,0.1723153 -0.25,0.25 -0.0025,0.076914 0.02723,0.1988338 0.03125,0.34375 0.008,0.2898324 0.0071,0.6782824 0.03125,1.0625 0.02411,0.3842176 0.0706,0.7448439 0.09375,1.03125 0.01157,0.1432031 0.02333,0.262308 0.03125,0.34375 0.004,0.04072 -0.0021,0.077 0,0.09375 -0.002,-0.0081 -0.03145,-0.06304 -0.03125,-0.0625 10e-5,2.7e-4 -9.4e-5,-0.03143 0,-0.03125 9.4e-5,1.79e-4 -0.09384,-0.09384 -0.09375,-0.09375 0.117656,0.117656 0.14427,0.230021 0.15625,0.3125 0.01198,0.08248 0.0046,0.151956 0,0.21875 -0.0091,0.133588 -0.0085,0.252981 -0.03125,0.375 -0.02278,0.122019 -0.05346,0.242896 -0.0625,0.3125 0.0042,-0.01956 -0.0051,-0.03632 -0.125,-0.15625 0.223749,0.223749 0.222401,0.388311 0.25,0.59375 0.0276,0.205439 0.03477,0.421928 0.03125,0.65625 -0.0035,0.234322 -0.03474,0.478469 -0.0625,0.6875 -0.02776,0.209031 -0.03279,0.378084 -0.125,0.5625 0.05918,-0.118361 0.0071,-0.0044 0,0.125 -0.0071,0.12943 -0.003,0.320346 0,0.53125 0.0061,0.421808 0.03196,0.970946 0.0625,1.5 0.03054,0.529054 0.0652,1.01975 0.09375,1.40625 0.01427,0.19325 0.02246,0.357086 0.03125,0.46875 0.0059,0.07444 -0.0022,0.09808 0,0.125 0.12036,0.166196 0.22966,0.337668 0.3125,0.5 0.114494,0.224361 0.238598,0.426098 0.28125,0.46875 -0.02509,-0.02509 -0.03151,-0.01539 0.0625,-0.03125 0.09401,-0.01586 0.24069,-0.08195 0.4375,-0.1875 0.113894,-0.06108 0.276611,-0.196738 0.40625,-0.28125 -0.01901,-2.02e-4 -0.04379,1.07e-4 -0.0625,0 a 0.41309115,0.41309115 0 0 1 -0.28125,-0.125 c -0.101701,-0.101701 -0.103387,-0.133203 -0.125,-0.1875 -0.02161,-0.0543 -0.04565,-0.127322 -0.0625,-0.1875 -0.03371,-0.120357 -0.06059,-0.238501 -0.09375,-0.40625 -0.06632,-0.335497 -0.161251,-0.785489 -0.21875,-1.21875 -0.0575,-0.433261 -0.101006,-0.849516 -0.125,-1.21875 -0.012,-0.184617 -0.002,-0.355745 0,-0.5 0.0015,-0.111161 0.0085,-0.20763 0.03125,-0.3125 0.002,-0.02923 -0.0016,-0.0641 0,-0.09375 0.03941,-0.71164 -0.0033,-1.539417 0.03125,-2.25 -0.05662,-0.230668 -0.09577,-0.452387 -0.09375,-0.65625 0.0013,-0.135909 0.0046,-0.282318 0,-0.375 -0.0046,-0.09268 -0.02503,-0.143823 0,-0.09375 C 21.755232,10.291716 21.748904,9.8536219 21.71875,9.375 21.688596,8.8963781 21.6875,8.4169981 21.6875,8.125 c 0,0.0066 -0.01743,-0.2674164 -0.03125,-0.5 -0.0069,-0.1162918 -0.03774,-0.2284231 -0.03125,-0.34375 0.0032,-0.057664 0.01566,-0.1205169 0.03125,-0.1875 0.01559,-0.066983 0.04446,-0.1382155 0.15625,-0.25 C 22.001041,6.6552091 22.204843,6.5936015 22.40625,6.5625 22.607657,6.5313985 22.801963,6.5304445 23,6.53125 c 0.011,4.48e-5 0.0203,-7.64e-5 0.03125,0 C 22.832251,6.3176664 22.569785,6.0385355 22.4375,5.90625 22.008492,5.4772418 21.280686,5.1155078 20.625,4.6875 z"
       transform="translate(-1.0606602,1011.6551)" />
    <path
       sodipodi:type="inkscape:offset"
       inkscape:radius="-0.43619969"
       inkscape:original="M 8.78125 20.78125 C 8.2049858 20.752198 7.6515152 20.785985 7.4375 21 C 7.2166505 21.22085 6.6871815 21.09407 6.4375 21.34375 C 6.1447614 21.636488 5.9876986 21.981052 5.65625 22.3125 C 5.4873255 22.481425 5.65029 23.281451 5.71875 23.90625 C 5.816357 24.043029 5.8993052 24.243055 6 24.34375 C 6.4535053 24.894058 6.6214746 25.568009 7.09375 26.09375 C 7.167289 25.741848 7.125 25.36194 7.125 25 C 7.125 24.716363 7.018245 24.434283 6.96875 24.15625 C 6.919255 23.878217 6.9270198 23.60423 7.15625 23.375 C 7.2840656 23.12886 7.5583951 22.942392 7.875 22.84375 C 8.1916049 22.74511 8.5504852 22.734292 8.8125 22.78125 C 10.585841 22.71796 13.780451 22.891583 15.125 22.84375 C 15.678457 22.83219 16.233994 22.875 16.6875 22.875 C 16.985254 22.78829 17.110618 22.88 17.21875 23 C 17.17684 22.390584 17.014239 21.826738 16.625 21.4375 C 16.465772 21.278272 14.085799 21.38665 13.6875 21.1875 C 12.698356 20.692928 11.30573 21.35191 10.25 21 C 9.9565721 20.902191 9.3575142 20.810302 8.78125 20.78125 z "
       style="fill:#232323;fill-opacity:1;stroke:#ffffff;stroke-width:1px;stroke-linecap:butt;stroke-linejoin:miter;stroke-opacity:0"
       id="path5746"
       d="M 8.03125,21.21875 C 7.8375839,21.244529 7.7321791,21.330321 7.75,21.3125 7.4868219,21.575679 7.1866183,21.567276 7,21.59375 c -0.1866183,0.02647 -0.2602741,0.07277 -0.25,0.0625 -0.2108635,0.210863 -0.384838,0.549465 -0.71875,0.90625 -0.00452,0.06617 -0.012994,0.205794 0,0.34375 0.024285,0.257838 0.088845,0.564209 0.125,0.875 0.071135,0.113916 0.1685721,0.262322 0.15625,0.25 a 0.43624331,0.43624331 0 0 1 0.03125,0.03125 c 0.1125937,0.136627 0.1333042,0.238967 0.21875,0.375 -0.018597,-0.08081 -0.014762,-0.126129 -0.03125,-0.21875 -0.053342,-0.29964 -0.00335,-0.696589 0.25,-1.03125 0.029445,-0.0389 0.0262,-0.0887 0.0625,-0.125 L 6.875,23.09375 c 0.2130706,-0.323185 0.5183335,-0.545126 0.875,-0.65625 0.3754101,-0.116961 0.7333575,-0.143759 1.0625,-0.09375 0.018022,-6.43e-4 0.044209,5.97e-4 0.0625,0 1.829308,-0.0597 4.980162,0.107675 6.25,0.0625 0.582028,-0.01216 1.136445,0.03125 1.5625,0.03125 -0.0703,-0.253363 -0.196244,-0.4593 -0.34375,-0.625 -0.05759,-0.007 -0.125979,-0.0256 -0.21875,-0.03125 -0.237727,-0.01449 -0.572991,-0.02237 -0.90625,-0.03125 -0.333259,-0.0089 -0.672339,-0.0098 -0.96875,-0.03125 -0.296411,-0.0214 -0.480852,-0.02168 -0.75,-0.15625 -0.35202,-0.17601 -0.873066,-0.151896 -1.46875,-0.09375 -0.595684,0.05815 -1.246308,0.157481 -1.90625,-0.0625 -0.202214,-0.0674 -0.829747,-0.160011 -1.375,-0.1875 -0.272626,-0.01374 -0.5250839,-0.02578 -0.71875,0 z"
       transform="translate(-1.0606602,1011.6551)" />
    <path
       sodipodi:type="inkscape:offset"
       inkscape:radius="-0.36806795"
       inkscape:original="M 35.96875 18.34375 C 35.686666 18.481331 35.412996 18.630919 35.1875 18.78125 C 34.92542 18.95597 34.749121 19.359814 34.46875 19.5 C 34.189319 19.639715 33.874436 19.750563 33.6875 19.9375 C 33.463668 20.161331 31.491746 20.221501 31.03125 20.375 C 30.455026 20.567075 29.031288 20.42189 28.5625 20.1875 C 28.280286 20.046393 27.539572 20.1875 27.21875 20.1875 C 25.72608 20.1875 23.659879 19.965121 22.71875 20.90625 C 22.52379 21.10121 22.044894 21.142606 21.84375 21.34375 C 19.838381 23.349118 20.6875 26.919125 20.6875 29.84375 C 20.6875 30.449475 20.937944 31.624114 20.6875 32.125 C 20.524344 32.451313 20.54896 33.16979 20.34375 33.375 C 19.925997 33.792753 19.410114 34.891014 19 36 C 19.489162 36.278154 20.03276 36.491819 20.5 36.875 C 20.53726 36.91226 20.718222 37.09375 20.78125 37.09375 C 20.85744 37.09375 21.517544 36.451206 21.625 36.34375 C 22.155 35.633734 22.784348 35.495785 23.34375 34.90625 C 23.742568 34.507432 24.613806 33.862911 25.03125 33.40625 C 24.567585 33.46071 24.01503 33.38657 23.59375 33.28125 C 23.387925 33.22979 22.714263 33.454533 22.625 33.28125 C 22.421242 32.885788 22.4375 31.911814 22.4375 31.75 C 22.4375 31.078378 22.51341 29.946492 22.3125 29.34375 C 22.22127 29.070049 22.40625 28.300233 22.40625 27.9375 C 22.40625 27.355542 22.32295 26.624887 22.5 26.09375 C 22.637582 25.680877 22.45666 24.942528 22.625 24.4375 C 22.781861 23.966924 22.469953 23.717548 22.84375 23.34375 C 22.90999 23.27751 22.91318 23.13716 23.0625 23.0625 C 23.52315 22.832178 24.351278 22.926663 24.9375 22.9375 C 25.69945 22.88842 26.960255 22.764629 27.8125 22.625 C 28.067921 22.49729 29.026346 22.6182 29.3125 22.59375 C 29.907511 22.54273 30.609186 22.4375 31.5 22.4375 C 31.670188 22.4375 33.6197 22.27595 33.625 22.28125 C 33.65849 22.31474 33.6875 22.53592 33.6875 22.59375 C 33.6875 22.788186 33.7273 23.564987 33.6875 24.15625 C 34.025702 23.90525 34.295826 23.110424 34.46875 22.9375 C 34.650523 22.755728 34.793777 22.318697 34.90625 22.09375 C 35.006595 21.893061 35.499228 21.407023 35.65625 21.25 C 35.804756 21.101495 35.94015 20.86971 36.03125 20.6875 C 36.216502 20.316995 36.58213 19.937721 36.9375 19.65625 C 36.837109 19.521664 36.69434 19.38868 36.6875 19.375 C 36.6029 19.205798 36.391701 19.064653 36.28125 18.84375 C 36.179615 18.64048 36.06978 18.518045 35.96875 18.34375 z "
       style="fill:#232323;fill-opacity:1;stroke:#ffffff;stroke-width:1px;stroke-linecap:butt;stroke-linejoin:miter;stroke-opacity:0"
       id="path5779"
       d="m 35.84375,18.84375 c -0.156754,0.08453 -0.312447,0.166631 -0.4375,0.25 -0.05383,0.03589 -0.165551,0.136138 -0.28125,0.28125 -0.115699,0.145112 -0.260965,0.349232 -0.5,0.46875 -0.308707,0.154353 -0.595254,0.251503 -0.6875,0.34375 -0.120601,0.1206 -0.212418,0.156827 -0.3125,0.1875 -0.100082,0.03067 -0.19207,0.04121 -0.3125,0.0625 -0.240859,0.04258 -0.520744,0.09363 -0.8125,0.125 -0.291756,0.03137 -0.597363,0.03259 -0.84375,0.0625 -0.246387,0.02991 -0.452795,0.07802 -0.5,0.09375 -0.400781,0.133594 -0.923774,0.137657 -1.4375,0.09375 -0.513726,-0.04391 -0.971985,-0.110995 -1.3125,-0.28125 0.018,0.009 -0.224384,-0.04779 -0.46875,-0.03125 -0.244366,0.01654 -0.504377,0.0625 -0.71875,0.0625 -0.764613,0 -1.65314,-0.05929 -2.4375,0 -0.78436,0.05929 -1.447418,0.228668 -1.8125,0.59375 -0.194821,0.194821 -0.39387,0.252853 -0.5625,0.3125 -0.16863,0.05965 -0.306276,0.118776 -0.3125,0.125 -0.907096,0.907096 -1.181407,2.188703 -1.21875,3.65625 -0.03734,1.467547 0.1875,3.095817 0.1875,4.59375 0,0.252135 0.06121,0.707156 0.09375,1.15625 0.03254,0.449094 0.07364,0.883974 -0.125,1.28125 -0.02994,0.05989 -0.08391,0.309044 -0.125,0.5625 -0.04109,0.253456 -0.05282,0.52157 -0.3125,0.78125 -0.269396,0.269396 -0.736483,1.23382 -1.125,2.21875 0.404024,0.208148 0.821042,0.398214 1.25,0.75 A 0.36810476,0.36810476 0 0 1 20.75,36.625 c 0.0054,0.0054 0.02204,0.02221 0.03125,0.03125 0.05266,-0.04623 0.09555,-0.100039 0.15625,-0.15625 0.169391,-0.156853 0.343694,-0.313068 0.40625,-0.375 0.01049,-0.01406 0.02067,-0.01757 0.03125,-0.03125 0.291823,-0.377302 0.614911,-0.617027 0.90625,-0.8125 0.301902,-0.20256 0.539122,-0.369829 0.78125,-0.625 a 0.36810476,0.36810476 0 0 1 0.03125,0 c 0.288356,-0.288356 0.673723,-0.636466 1.0625,-0.96875 -0.222313,-0.02832 -0.465107,-0.01471 -0.65625,-0.0625 0.05554,0.01389 -0.01363,0.02172 -0.09375,0.03125 -0.08012,0.0095 -0.170908,0.01615 -0.28125,0.03125 -0.110342,0.0151 -0.217184,0.03783 -0.34375,0.03125 -0.06328,-0.0033 -0.135804,6.94e-4 -0.21875,-0.03125 -0.08295,-0.03194 -0.188271,-0.130168 -0.25,-0.25 -0.160054,-0.31064 -0.196096,-0.668582 -0.21875,-1 -0.02265,-0.331418 -0.03125,-0.61892 -0.03125,-0.6875 0,-0.349678 0.03719,-0.790479 0.03125,-1.21875 -0.0059,-0.428271 -0.0508,-0.839893 -0.125,-1.0625 -0.101948,-0.305857 -0.03597,-0.562957 0,-0.84375 0.03597,-0.280793 0.0625,-0.5687 0.0625,-0.6875 0,-0.546835 -0.09503,-1.308684 0.125,-1.96875 0.03269,-0.0981 0.03832,-0.353556 0.03125,-0.65625 -0.0071,-0.302694 -0.01994,-0.658909 0.09375,-1 0.04912,-0.147351 0.01429,-0.231479 0,-0.4375 -0.01429,-0.206021 0.06047,-0.529217 0.3125,-0.78125 -0.0567,0.0567 -0.04444,0.02192 0,-0.0625 0.04444,-0.08442 0.156262,-0.234381 0.3125,-0.3125 0.327243,-0.163619 0.671343,-0.183437 1.03125,-0.1875 0.348671,-0.0039 0.695919,0.02503 0.96875,0.03125 0.0088,2.01e-4 0.02262,-1.6e-4 0.03125,0 0.75111,-0.04931 1.992164,-0.178099 2.8125,-0.3125 0.119706,-0.04056 0.226592,-0.0562 0.34375,-0.0625 0.150108,-0.0081 0.310011,-0.0058 0.46875,0 0.317477,0.01158 0.661681,0.03613 0.71875,0.03125 0.57663,-0.04944 1.29895,-0.15625 2.21875,-0.15625 -0.01568,0 0.169516,-0.01628 0.375,-0.03125 0.205484,-0.01497 0.464319,-0.0114 0.71875,-0.03125 0.254431,-0.01985 0.500809,-0.04806 0.6875,-0.0625 0.09335,-0.0072 0.163268,-0.02724 0.21875,-0.03125 0.02774,-0.002 0.07641,0.0011 0.09375,0 l 0.03125,0.375 0.25,-0.25 c 0.132825,0.132825 0.111895,0.172272 0.125,0.21875 0.01311,0.04648 0.02411,0.08336 0.03125,0.125 0.01428,0.08329 0.03125,0.128289 0.03125,0.21875 0,0.02828 -0.0022,0.239176 0,0.3125 0.04022,-0.07338 0.07941,-0.141909 0.15625,-0.21875 0.02078,-0.02078 0.08949,-0.165265 0.15625,-0.3125 0.06676,-0.147235 0.116578,-0.295655 0.1875,-0.4375 C 34.667268,21.727965 34.838115,21.57949 35,21.40625 35.161885,21.23301 35.329562,21.076689 35.40625,21 c 0.09219,-0.09219 0.199549,-0.305339 0.28125,-0.46875 0.166693,-0.333386 0.441278,-0.648366 0.71875,-0.90625 -0.0041,-0.005 -0.02418,-0.02145 -0.03125,-0.03125 -0.0071,-0.0098 -0.03104,-0.06207 -0.03125,-0.0625 C 36.332113,19.507976 36.103838,19.332677 35.9375,19 c -0.02688,-0.05376 -0.06256,-0.108439 -0.09375,-0.15625 z"
       transform="translate(-1.0606602,1011.6551)" />
  </g>
</svg>
